<svg width="18" height="18" viewBox="0 0 18 18" fill="none" xmlns="http://www.w3.org/2000/svg">
<path d="M9.00046 18C13.5243 18 17.3454 14.2363 17.3454 9.7804C17.3454 5.32447 13.5243 1.56081 9.00046 1.56081C4.47659 1.56081 0.65554 5.32447 0.65554 9.7804C0.65554 14.2363 4.47659 18 9.00046 18ZM9.00046 3.38739C12.5183 3.38739 15.491 6.31539 15.491 9.7804C15.491 13.2454 12.5183 16.1734 9.00046 16.1734C5.48261 16.1734 2.50997 13.2454 2.50997 9.7804C2.50997 6.31539 5.48261 3.38739 9.00046 3.38739ZM13.8999 1.29322L15.2091 0L18 2.73986L16.6898 4.03399L13.8999 1.29322ZM2.77144 0.00273988L4.08623 1.2923L1.31386 4.03217L0 2.74169L2.77144 0.00273988Z" fill="black"/>
<path d="M8.07324 6.12724H9.92767V10.6937H8.07324V6.12724ZM8.07324 11.607H9.92767V13.4335H8.07324V11.607Z" fill="black"/>
<path d="M9.00046 18C13.5243 18 17.3454 14.2363 17.3454 9.7804C17.3454 5.32447 13.5243 1.56081 9.00046 1.56081C4.47659 1.56081 0.65554 5.32447 0.65554 9.7804C0.65554 14.2363 4.47659 18 9.00046 18ZM9.00046 3.38739C12.5183 3.38739 15.491 6.31539 15.491 9.7804C15.491 13.2454 12.5183 16.1734 9.00046 16.1734C5.48261 16.1734 2.50997 13.2454 2.50997 9.7804C2.50997 6.31539 5.48261 3.38739 9.00046 3.38739ZM13.8999 1.29322L15.2091 0L18 2.73986L16.6898 4.03399L13.8999 1.29322ZM2.77144 0.00273988L4.08623 1.2923L1.31386 4.03217L0 2.74169L2.77144 0.00273988Z" fill="black"/>
<path d="M8.07324 6.12724H9.92767V10.6937H8.07324V6.12724ZM8.07324 11.607H9.92767V13.4335H8.07324V11.607Z" fill="black"/>
</svg>
