<svg width="25" height="22" viewBox="0 0 25 22" fill="none" xmlns="http://www.w3.org/2000/svg">
<path d="M12.4993 1.63764e-05C9.29719 1.63764e-05 6.09511 1.07252 3.65657 3.21843C-0.895515 7.22518 -1.1976 13.5758 2.75136 17.8943C2.53241 17.378 2.4866 16.8172 2.61938 16.2787C2.75215 15.7401 3.05792 15.2465 3.50032 14.8564C3.99275 14.4237 4.62928 14.1406 5.31724 14.0482C6.0052 13.9559 6.70869 14.0592 7.32532 14.3431C6.37202 13.1951 5.94566 11.773 6.13134 10.3606C6.31702 8.9482 7.10108 7.64934 8.32704 6.72322C9.55301 5.7971 11.1307 5.31184 12.7453 5.36427C14.36 5.41671 15.8928 6.00298 17.0378 7.0061C17.6086 7.50838 18.3827 7.79055 19.1899 7.79055C19.9971 7.79055 20.7712 7.50838 21.342 7.0061C21.9128 6.50382 22.2334 5.82259 22.2334 5.11227C22.2334 4.40194 21.9128 3.72071 21.342 3.21843C20.1816 2.1959 18.803 1.38519 17.2855 0.832873C15.768 0.280558 14.1414 -0.00248046 12.4993 1.63764e-05ZM22.2493 4.1076C22.4679 4.62386 22.5134 5.1845 22.3805 5.72286C22.2475 6.26123 21.9416 6.75467 21.4993 7.14452C21.0068 7.57725 20.3703 7.86038 19.6824 7.95271C18.9944 8.04504 18.2909 7.94174 17.6743 7.65785C18.5811 8.74602 19.0155 10.0838 18.899 11.4293C18.7824 12.7749 18.1226 14.0393 17.0389 14.9939C16.4681 15.4961 16.1474 16.1772 16.1473 16.8874C16.1472 17.2391 16.2259 17.5874 16.3788 17.9123C16.5317 18.2372 16.7558 18.5324 17.0383 18.7811C17.3209 19.0298 17.6563 19.2271 18.0255 19.3618C18.3947 19.4964 18.7904 19.5657 19.1901 19.5657C19.9971 19.5658 20.7712 19.2838 21.342 18.7816C25.8941 14.7758 26.1961 8.4251 22.2482 4.1076H22.2493ZM5.80761 14.2093C5.40782 14.209 5.0119 14.2781 4.64249 14.4127C4.27309 14.5472 3.93744 14.7445 3.65474 14.9932C3.37205 15.242 3.14786 15.5374 2.99499 15.8625C2.84213 16.1875 2.76359 16.536 2.76386 16.8878C2.76359 17.2396 2.84213 17.588 2.99499 17.9131C3.14786 18.2381 3.37205 18.5335 3.65474 18.7823C3.93744 19.0311 4.27309 19.2283 4.64249 19.3629C5.0119 19.4974 5.40782 19.5665 5.80761 19.5663C6.2074 19.5665 6.60332 19.4974 6.97273 19.3629C7.34213 19.2283 7.67778 19.0311 7.96048 18.7823C8.24317 18.5335 8.46736 18.2381 8.62023 17.9131C8.77309 17.588 8.85163 17.2396 8.85136 16.8878C8.85177 16.536 8.77336 16.1875 8.62062 15.8624C8.46789 15.5373 8.24381 15.2418 7.96121 14.993C7.67862 14.7441 7.34305 14.5467 6.97369 14.4121C6.60433 14.2775 6.20844 14.2082 5.80865 14.2083L5.80761 14.2093ZM16.2972 15.554C15.1954 16.2647 13.8649 16.6479 12.4988 16.6479C11.1327 16.6479 9.80211 16.2647 8.70032 15.554C9.02259 16.0967 9.1398 16.7157 9.03489 17.3211C8.92999 17.9264 8.60844 18.4865 8.11699 18.92C7.6738 19.3094 7.11278 19.5784 6.50075 19.6951C5.88871 19.8118 5.25147 19.7712 4.6649 19.5782C9.22324 22.8076 15.7743 22.8076 20.3316 19.5782C19.7451 19.771 19.1081 19.8115 18.4963 19.6948C17.8845 19.5781 17.3236 19.3092 16.8805 18.92C16.3888 18.4867 16.067 17.9265 15.9621 17.3211C15.8572 16.7157 15.9746 16.0966 16.2972 15.554Z" fill="black"/>
</svg>
