<svg width="18" height="18" viewBox="0 0 18 18" fill="none" xmlns="http://www.w3.org/2000/svg">
<path d="M8.25 9.75C8.25 9.55109 8.32902 9.36032 8.46967 9.21967C8.61032 9.07902 8.80109 9 9 9C9.19891 9 9.38968 9.07902 9.53033 9.21967C9.67098 9.36032 9.75 9.55109 9.75 9.75V12C9.75 12.1989 9.67098 12.3897 9.53033 12.5303C9.38968 12.671 9.19891 12.75 9 12.75C8.80109 12.75 8.61032 12.671 8.46967 12.5303C8.32902 12.3897 8.25 12.1989 8.25 12V9.75ZM9 5.625C8.70163 5.625 8.41548 5.74353 8.2045 5.9545C7.99353 6.16548 7.875 6.45163 7.875 6.75C7.875 7.04837 7.99353 7.33452 8.2045 7.5455C8.41548 7.75647 8.70163 7.875 9 7.875C9.29837 7.875 9.58452 7.75647 9.7955 7.5455C10.0065 7.33452 10.125 7.04837 10.125 6.75C10.125 6.45163 10.0065 6.16548 9.7955 5.9545C9.58452 5.74353 9.29837 5.625 9 5.625ZM1.5 9C1.5 7.01088 2.29018 5.10322 3.6967 3.6967C5.10322 2.29018 7.01088 1.5 9 1.5C10.9891 1.5 12.8968 2.29018 14.3033 3.6967C15.7098 5.10322 16.5 7.01088 16.5 9C16.5 10.9891 15.7098 12.8968 14.3033 14.3033C12.8968 15.7098 10.9891 16.5 9 16.5C7.01088 16.5 5.10322 15.7098 3.6967 14.3033C2.29018 12.8968 1.5 10.9891 1.5 9ZM9 3C7.4087 3 5.88258 3.63214 4.75736 4.75736C3.63214 5.88258 3 7.4087 3 9C3 10.5913 3.63214 12.1174 4.75736 13.2426C5.88258 14.3679 7.4087 15 9 15C10.5913 15 12.1174 14.3679 13.2426 13.2426C14.3679 12.1174 15 10.5913 15 9C15 7.4087 14.3679 5.88258 13.2426 4.75736C12.1174 3.63214 10.5913 3 9 3Z" fill="black"/>
</svg>
