<svg width="16" height="17" viewBox="0 0 16 17" fill="none" xmlns="http://www.w3.org/2000/svg">
<g clip-path="url(#clip0_56_26)">
<path d="M7.25779 2.3848C8.22052 2.38387 9.16187 2.68634 9.96278 3.25395C10.7637 3.82156 11.3881 4.62881 11.7572 5.57357C12.1262 6.51833 12.2232 7.55816 12.0359 8.56152C11.8487 9.56487 11.3855 10.4867 10.7051 11.2103C10.0246 11.9339 9.15747 12.4269 8.21331 12.6268C7.26915 12.8267 6.2904 12.7245 5.40087 12.3333C4.51135 11.9421 3.75101 11.2793 3.21606 10.4289C2.68111 9.57845 2.39557 8.57853 2.39557 7.55564C2.40141 6.18697 2.91541 4.87607 3.82586 3.90782C4.73632 2.93958 5.96964 2.39226 7.25779 2.3848ZM7.25779 1.41675C6.11505 1.41675 4.99798 1.77679 4.04783 2.45134C3.09768 3.12589 2.35713 4.08465 1.91982 5.20639C1.48251 6.32812 1.3681 7.56245 1.59103 8.75328C1.81397 9.9441 2.36425 11.0379 3.17229 11.8965C3.98032 12.755 5.00982 13.3397 6.1306 13.5766C7.25138 13.8134 8.4131 13.6919 9.46885 13.2272C10.5246 12.7626 11.427 11.9758 12.0618 10.9662C12.6967 9.95669 13.0356 8.76979 13.0356 7.55564C13.0356 5.9275 12.4268 4.36605 11.3433 3.21479C10.2598 2.06352 8.79015 1.41675 7.25779 1.41675Z" fill="white"/>
<path d="M15.5556 15.7202L12.28 12.2163L11.6489 12.8821L14.9245 16.386C14.9656 16.4301 15.0145 16.465 15.0684 16.489C15.1223 16.5129 15.18 16.5254 15.2384 16.5256C15.2968 16.5258 15.3547 16.5138 15.4087 16.4903C15.4628 16.4667 15.5119 16.4321 15.5533 16.3884C15.5948 16.3447 15.6277 16.2927 15.6502 16.2355C15.6728 16.1782 15.6845 16.1168 15.6847 16.0548C15.6849 15.9927 15.6736 15.9313 15.6515 15.8738C15.6293 15.8164 15.5967 15.7642 15.5556 15.7202Z" fill="white"/>
</g>
<defs>
<clipPath id="clip0_56_26">
<rect width="16" height="17" fill="white"/>
</clipPath>
</defs>
</svg>
