<svg width="18" height="18" viewBox="0 0 18 18" fill="none" xmlns="http://www.w3.org/2000/svg">
<path d="M17.9992 5.09161C18.0073 4.86196 17.9557 4.63341 17.8474 4.42C17.7392 4.20658 17.5766 4.0128 17.3696 3.85053L13.0987 0.494696C12.6901 0.179356 12.141 0.00184933 11.5683 0H1.63595C0.736363 0 0 0.571842 0 1.28544V16.7146C0 17.4214 0.736363 18 1.63595 18H16.3632C17.2628 18 17.9992 17.4214 17.9992 16.7146V5.09161ZM11.8628 2.25651L15.1273 4.8216H11.8628V2.25651V2.25651ZM15.5446 16.0714H2.45454V1.92864H9.40826V5.05304C9.40826 5.98457 10.3741 6.75024 11.5683 6.75024H15.5446V16.0714V16.0714Z" fill="black"/>
<path d="M6.5475 5.91419C6.72276 5.91841 6.89731 5.89492 7.0608 5.84514C7.22429 5.79535 7.37339 5.72027 7.49926 5.62436C7.62512 5.52844 7.72519 5.41364 7.79353 5.28676C7.86187 5.15988 7.89708 5.02351 7.89708 4.88574C7.89708 4.74797 7.86187 4.6116 7.79353 4.48472C7.72519 4.35785 7.62512 4.24304 7.49926 4.14713C7.37339 4.05121 7.22429 3.97613 7.0608 3.92634C6.89731 3.87656 6.72276 3.85308 6.5475 3.85729C6.2073 3.86548 5.88452 3.97742 5.64756 4.1694C5.4106 4.36138 5.27808 4.61831 5.27808 4.88574C5.27808 5.15318 5.4106 5.4101 5.64756 5.60208C5.88452 5.79406 6.2073 5.906 6.5475 5.91419V5.91419Z" fill="black"/>
<path fill-rule="evenodd" clip-rule="evenodd" d="M9.1628 8.14269C9.1628 7.04915 7.99198 6.25745 6.54503 6.25745C5.09931 6.25745 3.92726 7.04819 3.92726 8.14269V8.65667C3.92726 8.74772 3.97329 8.83504 4.05523 8.89942C4.13717 8.9638 4.24829 8.99997 4.36417 8.99997H8.72712C8.84278 8.99972 8.9536 8.96344 9.03527 8.89908C9.11694 8.83473 9.1628 8.74756 9.1628 8.65667V8.14269ZM4.29544 11.4108C4.29544 11.2829 4.36009 11.1603 4.47517 11.0698C4.59025 10.9794 4.74633 10.9286 4.90908 10.9286H13.0901C13.2528 10.9286 13.4089 10.9794 13.524 11.0698C13.6391 11.1603 13.7037 11.2829 13.7037 11.4108C13.7037 11.5386 13.6391 11.6613 13.524 11.7517C13.4089 11.8421 13.2528 11.8929 13.0901 11.8929H4.90908C4.74633 11.8929 4.59025 11.8421 4.47517 11.7517C4.36009 11.6613 4.29544 11.5386 4.29544 11.4108ZM4.29544 13.6605C4.29544 13.5327 4.36009 13.41 4.47517 13.3196C4.59025 13.2292 4.74633 13.1784 4.90908 13.1784H13.0901C13.2528 13.1784 13.4089 13.2292 13.524 13.3196C13.6391 13.41 13.7037 13.5327 13.7037 13.6605C13.7037 13.7884 13.6391 13.911 13.524 14.0015C13.4089 14.0919 13.2528 14.1427 13.0901 14.1427H4.90908C4.74633 14.1427 4.59025 14.0919 4.47517 14.0015C4.36009 13.911 4.29544 13.7884 4.29544 13.6605Z" fill="black"/>
</svg>
