<svg width="93" height="88" viewBox="0 0 93 88" fill="none" xmlns="http://www.w3.org/2000/svg">
<path d="M53.7917 45.6667C53.2394 45.6667 52.7917 46.1144 52.7917 46.6667C52.7917 47.219 53.2394 47.6667 53.7917 47.6667V45.6667ZM54.305 46.6667L54.3053 45.6667H54.305V46.6667ZM58.645 50.1707L57.6542 50.3061L57.6542 50.3063L58.645 50.1707ZM59.2152 54.336L60.206 54.2006L60.206 54.2004L59.2152 54.336ZM56.3204 57.3333L56.3206 56.3333H56.3204V57.3333ZM36.6796 57.3333V56.3333H36.6794L36.6796 57.3333ZM33.7848 54.336L34.7756 54.4714L34.7756 54.4713L33.7848 54.336ZM34.3535 50.1707L33.3628 50.0352L33.3627 50.0354L34.3535 50.1707ZM38.6965 46.6667L38.6961 47.6667H38.6965V46.6667ZM39.2083 47.6667C39.7606 47.6667 40.2083 47.219 40.2083 46.6667C40.2083 46.1144 39.7606 45.6667 39.2083 45.6667V47.6667ZM91 44C91 67.1435 71.1307 86 46.5 86V88C72.1272 88 93 68.353 93 44H91ZM46.5 86C21.8693 86 2 67.1435 2 44H0C0 68.353 20.8728 88 46.5 88V86ZM2 44C2 20.8565 21.8693 2 46.5 2V0C20.8728 0 0 19.647 0 44H2ZM46.5 2C71.1307 2 91 20.8565 91 44H93C93 19.647 72.1272 0 46.5 0V2ZM52.7917 37.3333C52.7917 40.3805 50.061 43 46.5 43V45C50.9931 45 54.7917 41.65 54.7917 37.3333H52.7917ZM46.5 43C42.939 43 40.2083 40.3805 40.2083 37.3333H38.2083C38.2083 41.65 42.0069 45 46.5 45V43ZM40.2083 37.3333C40.2083 34.2862 42.939 31.6667 46.5 31.6667V29.6667C42.0069 29.6667 38.2083 33.0167 38.2083 37.3333H40.2083ZM46.5 31.6667C50.061 31.6667 52.7917 34.2862 52.7917 37.3333H54.7917C54.7917 33.0167 50.9931 29.6667 46.5 29.6667V31.6667ZM53.7917 47.6667H54.305V45.6667H53.7917V47.6667ZM54.3047 47.6667C55.1518 47.6669 55.9573 47.9506 56.5715 48.4464L57.8279 46.8903C56.8437 46.0957 55.5905 45.667 54.3053 45.6667L54.3047 47.6667ZM56.5715 48.4464C57.1837 48.9407 57.5585 49.6056 57.6542 50.3061L59.6358 50.0352C59.4671 48.8012 58.814 47.6865 57.8279 46.8903L56.5715 48.4464ZM57.6542 50.3063L58.2244 54.4716L60.206 54.2004L59.6358 50.035L57.6542 50.3063ZM58.2244 54.4714C58.2546 54.6924 58.2334 54.9175 58.1604 55.1335L60.0553 55.7735C60.2264 55.2668 60.2784 54.73 60.206 54.2006L58.2244 54.4714ZM58.1604 55.1335C58.0874 55.3498 57.9625 55.5564 57.7881 55.737L59.2267 57.1264C59.5998 56.7401 59.8843 56.2798 60.0553 55.7735L58.1604 55.1335ZM57.7881 55.737C57.6133 55.9179 57.3931 56.0683 57.1388 56.1731L57.9011 58.0221C58.401 57.8161 58.8539 57.5124 59.2267 57.1264L57.7881 55.737ZM57.1388 56.1731C56.8845 56.278 56.6053 56.3334 56.3206 56.3333L56.3202 58.3333C56.8628 58.3334 57.4014 58.2282 57.9011 58.0221L57.1388 56.1731ZM56.3204 56.3333H36.6796V58.3333H56.3204V56.3333ZM36.6794 56.3333C36.3947 56.3334 36.1155 56.278 35.8612 56.1731L35.0989 58.0221C35.5986 58.2282 36.1372 58.3334 36.6798 58.3333L36.6794 56.3333ZM35.8612 56.1731C35.6069 56.0683 35.3866 55.9179 35.2119 55.737L33.7733 57.1264C34.1461 57.5125 34.599 57.8161 35.0989 58.0221L35.8612 56.1731ZM35.2119 55.737C35.0375 55.5564 34.9126 55.3498 34.8396 55.1335L32.9447 55.7735C33.1157 56.2798 33.4002 56.7401 33.7733 57.1264L35.2119 55.737ZM34.8396 55.1335C34.7666 54.9175 34.7454 54.6924 34.7756 54.4714L32.794 54.2006C32.7216 54.73 32.7736 55.2668 32.9447 55.7735L34.8396 55.1335ZM34.7756 54.4713L35.3443 50.306L33.3627 50.0354L32.794 54.2007L34.7756 54.4713ZM35.3443 50.3061C35.4401 49.6053 35.8152 48.9401 36.4279 48.4458L35.172 46.8892C34.1852 47.6855 33.5315 48.8007 33.3628 50.0352L35.3443 50.3061ZM36.4279 48.4458C37.0426 47.9498 37.8487 47.6664 38.6961 47.6667L38.6968 45.6667C37.4109 45.6662 36.1569 46.0946 35.172 46.8892L36.4279 48.4458ZM38.6965 47.6667H39.2083V45.6667H38.6965V47.6667Z" fill="black"/>
</svg>
