<svg width="18" height="18" viewBox="0 0 18 18" fill="none" xmlns="http://www.w3.org/2000/svg">
<path d="M9 0C7.17722 0.00263258 5.39846 0.359408 3.89808 1.02332C2.39769 1.68723 1.2461 2.62711 0.595033 3.71914C-0.0560338 4.81116 -0.176024 6.00409 0.250873 7.14072C0.67777 8.27735 1.63152 9.30436 2.98646 10.0864V18L9 15.4286L15.0135 18V10.0864C16.3685 9.30436 17.3222 8.27735 17.7491 7.14072C18.176 6.00409 18.056 4.81116 17.405 3.71914C16.7539 2.62711 15.6023 1.68723 14.1019 1.02332C12.6015 0.359408 10.8228 0.00263258 9 0V0ZM13.009 15.5957L10.1125 14.3614L9 13.8857L7.8875 14.3614L4.99097 15.5957V10.9607C6.23427 11.3631 7.60742 11.5727 9 11.5727C10.3926 11.5727 11.7657 11.3631 13.009 10.9607V15.5957ZM13.901 9C12.7419 9.72583 11.2269 10.172 9.61323 10.2628C7.99952 10.3537 6.38654 10.0835 5.04808 9.49823C3.70961 8.91296 2.72815 8.04864 2.27029 7.05198C1.81242 6.05532 1.90638 4.98775 2.53619 4.03047C3.16601 3.0732 4.29288 2.28521 5.72553 1.80026C7.15817 1.31532 8.80831 1.16331 10.3958 1.37003C11.9834 1.57674 13.4104 2.12946 14.4348 2.93434C15.4592 3.73923 16.0178 4.74669 16.0158 5.78571C16.0146 6.3848 15.827 6.97771 15.4638 7.52966C15.1007 8.08161 14.5694 8.5815 13.901 9Z" fill="black"/>
</svg>
