<svg width="46" height="32" viewBox="0 0 46 32" fill="none" xmlns="http://www.w3.org/2000/svg">
<path d="M0 5C0 2.23858 2.23858 0 5 0H41C43.7614 0 46 2.23858 46 5V27C46 29.7614 43.7614 32 41 32H5C2.23858 32 0 29.7614 0 27V5Z" fill="#EEEEEE"/>
<path d="M4.14267 27.9949C4.12546 27.9562 4.12082 27.9298 4.12874 27.9156C4.13534 27.8984 4.14756 27.8858 4.1654 27.8779C4.20109 27.862 4.26355 27.8502 4.35278 27.8425C4.44499 27.8336 4.55652 27.7999 4.68737 27.7417C5.05909 27.5762 5.14234 27.263 4.93712 26.802L2.94514 22.328C2.91469 22.2596 2.88803 22.1877 2.86518 22.1124C2.84397 22.0327 2.84095 21.9539 2.8561 21.8759C2.8729 21.7936 2.91582 21.7139 2.98484 21.6368C3.05387 21.5598 3.1657 21.4868 3.32034 21.418L5.3098 20.5322C5.45254 20.4687 5.57448 20.4304 5.67561 20.4174C5.77674 20.4045 5.86449 20.4135 5.93888 20.4445C6.01194 20.4726 6.07461 20.5213 6.12687 20.5907C6.17914 20.66 6.22845 20.7468 6.27479 20.8509L7.8497 24.3882C8.00858 24.745 8.10613 25.0722 8.14235 25.3696C8.17725 25.6641 8.16602 25.931 8.10867 26.1703C8.05429 26.4083 7.96238 26.6221 7.83294 26.8115C7.7035 27.001 7.55538 27.1685 7.38856 27.314C7.22175 27.4596 7.04269 27.5856 6.85139 27.6922C6.66439 27.8004 6.48316 27.8935 6.30771 27.9716C5.91219 28.1477 5.55829 28.2732 5.246 28.3481C4.93801 28.4247 4.66916 28.4571 4.43944 28.4453C4.42193 28.446 4.39879 28.4421 4.37003 28.4335C4.34292 28.4206 4.31811 28.3889 4.2956 28.3383L4.14267 27.9949Z" fill="#7000FF"/>
<path d="M12.3172 25.2747C12.0942 25.374 11.8632 25.4554 11.6243 25.519C11.3854 25.5827 11.1461 25.6215 10.9065 25.6355C10.6698 25.6482 10.436 25.6312 10.2049 25.5844C9.97385 25.5376 9.75252 25.4527 9.54091 25.3295C9.33227 25.2051 9.13782 25.0404 8.95755 24.8356C8.77596 24.6278 8.61632 24.3693 8.47862 24.06C8.34357 23.7567 8.26026 23.4696 8.22868 23.1986C8.19578 22.9246 8.20289 22.6684 8.24999 22.4301C8.30008 22.1904 8.38504 21.9691 8.50488 21.7661C8.6234 21.5601 8.76656 21.3734 8.93435 21.2061C9.1038 21.0344 9.29209 20.8811 9.49924 20.7461C9.70638 20.6111 9.92147 20.494 10.1445 20.3947C10.3497 20.3033 10.5653 20.2234 10.7913 20.1548C11.019 20.0819 11.2492 20.0347 11.4819 20.0131C11.7162 19.9871 11.9484 19.9924 12.1784 20.029C12.4101 20.0612 12.6326 20.1367 12.8459 20.2556C13.0621 20.3731 13.2645 20.5396 13.453 20.7549C13.6432 20.966 13.8131 21.2396 13.9627 21.5756C14.1163 21.9206 14.2121 22.2396 14.2499 22.5328C14.2865 22.8229 14.2774 23.0906 14.2227 23.3359C14.1696 23.5769 14.0804 23.7966 13.9549 23.995C13.8294 24.1934 13.6793 24.3725 13.5046 24.5322C13.3315 24.6877 13.1424 24.8271 12.9372 24.9505C12.732 25.0739 12.5254 25.182 12.3172 25.2747ZM13.21 23.5944C13.3022 23.5534 13.3843 23.4936 13.4563 23.4153C13.5299 23.3326 13.5778 23.224 13.5998 23.0894C13.6249 22.9536 13.6178 22.7857 13.5787 22.5857C13.5412 22.3815 13.4596 22.1381 13.3338 21.8556C13.2146 21.588 13.0943 21.3779 12.9729 21.2252C12.8545 21.0713 12.7378 20.9611 12.6227 20.8948C12.5063 20.8255 12.3949 20.7913 12.2885 20.7924C12.1821 20.7934 12.0828 20.8145 11.9906 20.8555C11.9192 20.8873 11.8455 20.9379 11.7696 21.0074C11.6966 21.0755 11.6432 21.1759 11.6096 21.3084C11.5776 21.4367 11.5768 21.6028 11.607 21.8067C11.6359 22.0076 11.7172 22.2583 11.8509 22.5586C11.9846 22.859 12.1127 23.0906 12.2351 23.2534C12.3575 23.4163 12.4741 23.5301 12.5848 23.5948C12.6956 23.6595 12.8022 23.6869 12.9046 23.6769C13.0101 23.6656 13.1119 23.6381 13.21 23.5944Z" fill="#7000FF"/>
<path d="M18.18 22.5842C17.7904 22.7577 17.4178 22.8612 17.0622 22.8948C16.7066 22.9284 16.378 22.8948 16.0765 22.7938C15.7737 22.6899 15.5009 22.5174 15.2582 22.2763C15.0154 22.0352 14.8106 21.7273 14.6438 21.3526L12.6657 16.9097C12.6207 16.8086 12.5899 16.7154 12.5733 16.6302C12.5554 16.5419 12.5605 16.4613 12.5885 16.3882C12.6166 16.3152 12.6692 16.2454 12.7465 16.1789C12.8238 16.1124 12.9339 16.0474 13.0766 15.9838L15.0304 15.114C15.1582 15.057 15.2698 15.0234 15.365 15.0131C15.4601 15.0028 15.5434 15.0138 15.6149 15.0462C15.6879 15.0742 15.7512 15.1244 15.8048 15.1968C15.8601 15.2648 15.9115 15.3524 15.9592 15.4594L16.9006 17.5738C17.1834 17.5048 17.4662 17.4716 17.7488 17.4741C18.033 17.4722 18.3054 17.5238 18.5659 17.6287C18.8251 17.7307 19.0663 17.8923 19.2896 18.1136C19.5128 18.3349 19.7078 18.6329 19.8747 19.0076C20.0137 19.3198 20.099 19.6115 20.1306 19.8825C20.1638 20.1492 20.154 20.3994 20.1013 20.6331C20.0515 20.8655 19.9648 21.0787 19.8409 21.2728C19.7201 21.4656 19.573 21.6433 19.3996 21.806C19.2291 21.9675 19.039 22.1127 18.8292 22.2417C18.6194 22.3708 18.403 22.4849 18.18 22.5842ZM18.6919 21.5973C18.9107 21.4643 19.0821 21.3131 19.2063 21.1438C19.3291 20.9715 19.4088 20.7864 19.4454 20.5884C19.4849 20.3891 19.4862 20.18 19.4494 19.9612C19.4126 19.7425 19.3432 19.5186 19.2412 19.2896C19.1406 19.0636 19.0207 18.8622 18.8814 18.6855C18.7421 18.5088 18.5852 18.3684 18.4106 18.2644C18.2361 18.1604 18.0437 18.0964 17.8334 18.0724C17.6262 18.0471 17.4 18.0712 17.1548 18.1447L18.6919 21.5973Z" fill="#7000FF"/>
<path d="M25.2465 18.4438C25.3268 18.4081 25.395 18.3652 25.4512 18.3153C25.506 18.2624 25.5527 18.2113 25.5914 18.162C25.633 18.1114 25.6655 18.0684 25.689 18.0331C25.7141 17.9934 25.7355 17.9696 25.7534 17.9616C25.7801 17.9497 25.8 17.9462 25.8129 17.9512C25.8287 17.9548 25.8494 17.9652 25.8748 17.9824L26.1382 18.1537C26.1637 18.1709 26.1804 18.1884 26.1883 18.2062C26.1976 18.2271 26.1989 18.2461 26.1923 18.2633C26.1857 18.2804 26.1785 18.2962 26.1705 18.3104C26.1029 18.4225 26.0155 18.5504 25.9085 18.6943C25.8002 18.8351 25.6655 18.9807 25.5043 19.1308C25.346 19.2797 25.1572 19.4278 24.9379 19.5754C24.7198 19.7259 24.4681 19.8647 24.1826 19.9919C23.9596 20.0912 23.7286 20.1726 23.4897 20.2362C23.2507 20.2998 23.0115 20.3387 22.7719 20.3527C22.5352 20.3654 22.3014 20.3484 22.0703 20.3016C21.8392 20.2548 21.6179 20.1699 21.4063 20.0467C21.1977 19.9223 21.0032 19.7576 20.8229 19.5528C20.6413 19.345 20.4817 19.0865 20.344 18.7772C20.209 18.4739 20.1256 18.1868 20.0941 17.9157C20.0612 17.6418 20.0683 17.3856 20.1154 17.1473C20.1655 16.9076 20.2504 16.6863 20.3703 16.4833C20.4888 16.2773 20.6319 16.0906 20.7997 15.9233C20.9692 15.7516 21.1575 15.5983 21.3646 15.4633C21.5718 15.3283 21.7869 15.2112 22.0099 15.1119C22.3816 14.9464 22.7451 14.8344 23.1004 14.776C23.4586 14.7163 23.7976 14.7293 24.1172 14.815C24.4369 14.9007 24.7325 15.0685 25.004 15.3181C25.2755 15.5678 25.5112 15.9172 25.7112 16.3662L25.8224 16.616C25.8462 16.6696 25.8514 16.7172 25.8379 16.7588C25.8243 16.8005 25.7863 16.8352 25.7239 16.863L23.8772 17.6852C23.9989 17.8947 24.1227 18.0605 24.2483 18.1827C24.3757 18.3006 24.4978 18.387 24.6149 18.4418C24.7336 18.4923 24.847 18.5148 24.955 18.5095C25.0631 18.5041 25.1603 18.4822 25.2465 18.4438ZM25.0202 16.5189C24.9142 16.281 24.8075 16.0933 24.7 15.9559C24.5942 15.8142 24.4895 15.7111 24.386 15.6468C24.2812 15.5794 24.177 15.5456 24.0736 15.5453C23.9731 15.5437 23.8768 15.5635 23.7846 15.6045C23.7162 15.635 23.6478 15.6814 23.5794 15.744C23.5111 15.8065 23.4604 15.8967 23.4274 16.0147C23.3974 16.1314 23.3929 16.2813 23.4138 16.4644C23.4377 16.6462 23.5048 16.8729 23.6151 17.1445L25.0202 16.5189Z" fill="#7000FF"/>
<path d="M29.4512 14.7545C29.585 15.0549 29.7274 15.2908 29.8786 15.4622C30.0327 15.6323 30.1853 15.755 30.3364 15.8303C30.4862 15.9025 30.6282 15.9373 30.7623 15.9346C30.8965 15.9319 31.0127 15.9086 31.1108 15.865C31.1852 15.8319 31.2496 15.7925 31.3041 15.7468C31.3573 15.6982 31.4024 15.6514 31.4394 15.6064C31.475 15.5585 31.5052 15.5183 31.53 15.4859C31.5534 15.4505 31.5741 15.4289 31.5919 15.4209C31.6187 15.409 31.6385 15.4055 31.6514 15.4105C31.6673 15.4141 31.6879 15.4245 31.7134 15.4417L31.9768 15.613C32.0022 15.6302 32.0189 15.6477 32.0269 15.6655C32.0362 15.6864 32.0375 15.7054 32.0309 15.7226C32.0243 15.7397 32.017 15.7555 32.0091 15.7697C31.9414 15.8818 31.8534 16.0082 31.7451 16.1491C31.6355 16.287 31.4994 16.4295 31.3369 16.5767C31.1773 16.7226 30.9908 16.868 30.7774 17.0129C30.564 17.1578 30.3205 17.2912 30.0469 17.413C29.8239 17.5123 29.5929 17.5937 29.354 17.6573C29.1151 17.721 28.8751 17.7583 28.6342 17.7694C28.3962 17.7791 28.1617 17.7606 27.9306 17.7138C27.6983 17.664 27.4769 17.5791 27.2666 17.4589C27.058 17.3344 26.8636 17.1698 26.6833 16.965C26.5017 16.7572 26.3434 16.5017 26.2083 16.1983C26.0733 15.895 25.99 15.6079 25.9584 15.3369C25.9255 15.0629 25.9333 14.8082 25.9817 14.5729C26.0318 14.3332 26.1167 14.1119 26.2366 13.9088C26.3551 13.7029 26.4976 13.5147 26.6641 13.3444C26.8335 13.1727 27.0218 13.0194 27.2289 12.8844C27.4361 12.7494 27.6512 12.6323 27.8742 12.533C28.1181 12.4244 28.3616 12.3391 28.6048 12.2772C28.8467 12.2122 29.0767 12.1686 29.2948 12.1463C29.5146 12.1198 29.7169 12.1099 29.9017 12.1167C30.0881 12.1192 30.2447 12.135 30.3717 12.164C30.3875 12.1676 30.4041 12.1727 30.4213 12.1793C30.4385 12.1859 30.4517 12.1996 30.461 12.2204C30.4702 12.2413 30.4721 12.2654 30.4665 12.2928L30.4176 12.6032C30.4133 12.6336 30.4072 12.6559 30.3993 12.6701C30.3943 12.683 30.3785 12.6954 30.3517 12.7074C30.3339 12.7153 30.3061 12.717 30.2684 12.7124C30.2307 12.7078 30.185 12.705 30.1311 12.704C30.0759 12.7001 30.0146 12.7025 29.9472 12.7111C29.8784 12.7168 29.8069 12.7361 29.7325 12.7692C29.6344 12.8129 29.5401 12.8852 29.4496 12.9861C29.3578 13.084 29.2893 13.2142 29.2441 13.3769C29.1989 13.5395 29.188 13.735 29.2113 13.9634C29.2375 14.1905 29.3175 14.4542 29.4512 14.7545Z" fill="#7000FF"/>
<path d="M34.8308 12.3594C34.9645 12.6597 35.107 12.8956 35.2581 13.0671C35.4123 13.2372 35.5649 13.3599 35.716 13.4351C35.8657 13.5074 36.0077 13.5422 36.1419 13.5394C36.2761 13.5367 36.3923 13.5135 36.4904 13.4698C36.5647 13.4367 36.6292 13.3973 36.6837 13.3517C36.7368 13.3031 36.7819 13.2563 36.8189 13.2113C36.8546 13.1634 36.8848 13.1232 36.9096 13.0908C36.933 13.0554 36.9537 13.0337 36.9715 13.0258C36.9983 13.0139 37.0181 13.0104 37.031 13.0153C37.0469 13.019 37.0675 13.0294 37.093 13.0465L37.3563 13.2179C37.3818 13.2351 37.3985 13.2526 37.4065 13.2704C37.4157 13.2912 37.4171 13.3102 37.4105 13.3274C37.4039 13.3446 37.3966 13.3603 37.3887 13.3745C37.321 13.4866 37.233 13.6131 37.1247 13.754C37.015 13.8919 36.879 14.0344 36.7164 14.1816C36.5569 14.3275 36.3704 14.4728 36.157 14.6177C35.9436 14.7627 35.7001 14.896 35.4265 15.0178C35.2034 15.1171 34.9725 15.1986 34.7336 15.2622C34.4946 15.3258 34.2547 15.3632 34.0138 15.3742C33.7758 15.384 33.5413 15.3654 33.3102 15.3187C33.0778 15.2689 32.8565 15.1839 32.6462 15.0638C32.4376 14.9393 32.2431 14.7747 32.0629 14.5699C31.8813 14.3621 31.7229 14.1065 31.5879 13.8032C31.4528 13.4999 31.3695 13.2127 31.338 12.9417C31.3051 12.6677 31.3128 12.4131 31.3613 12.1777C31.4113 11.9381 31.4963 11.7167 31.6161 11.5137C31.7347 11.3077 31.8772 11.1196 32.0436 10.9492C32.2131 10.7776 32.4014 10.6243 32.6085 10.4893C32.8157 10.3543 33.0307 10.2371 33.2538 10.1378C33.4976 10.0293 33.7412 9.94401 33.9844 9.88204C34.2263 9.81711 34.4563 9.77349 34.6744 9.7512C34.8942 9.72462 35.0965 9.71474 35.2812 9.72156C35.4676 9.72408 35.6243 9.73984 35.7512 9.76884C35.7671 9.77247 35.7836 9.77758 35.8008 9.78418C35.818 9.79078 35.8313 9.80449 35.8405 9.8253C35.8498 9.84612 35.8516 9.87025 35.846 9.89768L35.7971 10.2081C35.7929 10.2385 35.7868 10.2608 35.7788 10.275C35.7739 10.2879 35.758 10.3003 35.7313 10.3122C35.7134 10.3202 35.6857 10.3218 35.648 10.3172C35.6103 10.3126 35.5645 10.3099 35.5107 10.3089C35.4555 10.305 35.3941 10.3073 35.3267 10.316C35.258 10.3216 35.1864 10.341 35.1121 10.3741C35.014 10.4178 34.9196 10.4901 34.8292 10.5909C34.7373 10.6888 34.6688 10.8191 34.6237 10.9817C34.5785 11.1444 34.5675 11.3399 34.5908 11.5683C34.6171 11.7953 34.6971 12.059 34.8308 12.3594Z" fill="#7000FF"/>
<path d="M40.7941 12.5959C40.5711 12.6952 40.3401 12.7767 40.1012 12.8403C39.8623 12.9039 39.623 12.9427 39.3834 12.9568C39.1468 12.9695 38.9129 12.9525 38.6818 12.9057C38.4508 12.8589 38.2294 12.7739 38.0178 12.6508C37.8092 12.5263 37.6147 12.3617 37.4345 12.1569C37.2529 11.9491 37.0933 11.6906 36.9556 11.3813C36.8205 11.078 36.7372 10.7908 36.7056 10.5198C36.6727 10.2458 36.6798 9.98968 36.7269 9.75135C36.777 9.51169 36.862 9.29035 36.9818 9.08734C37.1003 8.88135 37.2435 8.69468 37.4113 8.52733C37.5807 8.35568 37.769 8.20236 37.9762 8.06738C38.1833 7.93239 38.3984 7.81524 38.6214 7.71594C38.8266 7.62459 39.0422 7.54463 39.2683 7.47606C39.4959 7.4032 39.7261 7.35595 39.9588 7.33431C40.1931 7.30838 40.4253 7.31368 40.6554 7.35022C40.8871 7.38246 41.1096 7.458 41.3228 7.57685C41.5391 7.69437 41.7414 7.86082 41.93 8.07619C42.1202 8.28726 42.2901 8.56082 42.4397 8.89686C42.5933 9.24182 42.689 9.56087 42.7269 9.85401C42.7634 10.1442 42.7543 10.4119 42.6996 10.6572C42.6466 10.8982 42.5573 11.1179 42.4318 11.3162C42.3064 11.5146 42.1563 11.6937 41.9815 11.8535C41.8084 12.0089 41.6193 12.1484 41.4141 12.2718C41.209 12.3952 41.0023 12.5032 40.7941 12.5959ZM41.6869 10.9156C41.7791 10.8746 41.8612 10.8149 41.9332 10.7365C42.0069 10.6538 42.0547 10.5452 42.0768 10.4107C42.1018 10.2748 42.0947 10.1069 42.0556 9.907C42.0181 9.70277 41.9365 9.4594 41.8107 9.17689C41.6916 8.90925 41.5713 8.69912 41.4499 8.5465C41.3314 8.39255 41.2147 8.2824 41.0996 8.21605C40.9833 8.14671 40.8718 8.11258 40.7654 8.11364C40.659 8.1147 40.5597 8.13575 40.4675 8.1768C40.3961 8.20857 40.3225 8.25919 40.2465 8.32865C40.1735 8.39678 40.1202 8.49713 40.0865 8.62969C40.0546 8.75795 40.0537 8.92404 40.0839 9.12794C40.1128 9.32888 40.1941 9.57952 40.3278 9.87987C40.4615 10.1802 40.5896 10.4118 40.712 10.5747C40.8344 10.7376 40.951 10.8513 41.0617 10.9161C41.1725 10.9808 41.2791 11.0081 41.3816 10.9981C41.487 10.9868 41.5888 10.9593 41.6869 10.9156Z" fill="#7000FF"/>
</svg>
