<svg width="18" height="18" viewBox="0 0 18 18" fill="none" xmlns="http://www.w3.org/2000/svg">
<path d="M9.58222 1.14623C9.38943 1.132 9.19619 1.12487 9.00288 1.12486V0C9.22397 0.000107793 9.44498 0.00836236 9.66546 0.0247469L9.58222 1.14623ZM11.8366 1.65242C11.476 1.51328 11.1056 1.40086 10.7285 1.31609L10.9749 0.218223C11.4057 0.314961 11.8298 0.443195 12.2415 0.602925L11.8366 1.65242V1.65242ZM13.3777 2.45107C13.2169 2.34381 13.0521 2.24251 12.8839 2.14736L13.4384 1.16873C13.8231 1.38665 14.1912 1.63253 14.5397 1.90439L13.8479 2.7919C13.6954 2.67293 13.5386 2.55961 13.3777 2.45219V2.45107ZM15.4408 4.46457C15.2183 4.14845 14.9728 3.84918 14.7062 3.56918L15.5207 2.79303C15.8244 3.11361 16.1056 3.45669 16.361 3.81665L15.4408 4.46457V4.46457ZM16.2777 5.98538C16.2039 5.80704 16.1236 5.63145 16.037 5.45894L17.0416 4.95276C17.2402 5.34768 17.4094 5.75674 17.5478 6.1766L16.4791 6.52868C16.4187 6.34518 16.3515 6.16396 16.2777 5.98538V5.98538ZM16.874 8.8054C16.8649 8.41883 16.8273 8.03346 16.7615 7.65242L17.8695 7.46119C17.9449 7.89539 17.9888 8.33633 18 8.77728L16.8751 8.8054H16.874ZM16.7266 10.5354C16.7637 10.3442 16.7941 10.1541 16.8177 9.96175L17.9348 10.1001C17.8807 10.539 17.7942 10.9732 17.676 11.3993L16.5916 11.099C16.6433 10.9134 16.6883 10.7255 16.7266 10.5354V10.5354ZM15.6557 13.2115C15.8627 12.8853 16.0449 12.5433 16.2024 12.1901L17.2306 12.6457C17.0506 13.0506 16.8425 13.4398 16.6062 13.8133L15.6557 13.2115ZM14.5712 14.5669C14.7085 14.4297 14.8401 14.288 14.965 14.1417L15.8177 14.8763C15.6733 15.0437 15.5228 15.2058 15.3666 15.3622L14.5712 14.5669V14.5669Z" fill="black"/>
<path d="M9.00288 1.12486C7.70796 1.12495 6.43305 1.44437 5.29107 2.05482C4.14908 2.66528 3.17528 3.54792 2.45591 4.62458C1.73653 5.70123 1.29379 6.93867 1.1669 8.22729C1.04001 9.51591 1.23288 10.8159 1.72844 12.0122C2.224 13.2085 3.00694 14.2641 4.00792 15.0855C5.00891 15.907 6.19703 16.4689 7.46707 16.7216C8.7371 16.9742 10.0498 16.9097 11.289 16.5339C12.5282 16.1581 13.6555 15.4825 14.5712 14.5669L15.3666 15.3622C14.3201 16.4092 13.0315 17.1819 11.615 17.6119C10.1985 18.0419 8.69777 18.1159 7.24583 17.8273C5.79388 17.5387 4.43554 16.8965 3.29115 15.9575C2.14676 15.0185 1.25165 13.8118 0.685142 12.4442C0.118631 11.0766 -0.101794 9.59042 0.0433971 8.11729C0.188588 6.64416 0.694912 5.22958 1.51751 3.9989C2.3401 2.76821 3.45357 1.7594 4.75926 1.06187C6.06495 0.364336 7.52254 -0.000392275 9.00288 3.16601e-07V1.12486Z" fill="black"/>
<path d="M8.44042 3.37457C8.58959 3.37457 8.73266 3.43383 8.83814 3.5393C8.94362 3.64478 9.00288 3.78784 9.00288 3.937V9.79752L12.6566 11.8853C12.7824 11.9611 12.8735 12.0832 12.9104 12.2253C12.9474 12.3674 12.9273 12.5184 12.8544 12.6459C12.7816 12.7734 12.6617 12.8674 12.5205 12.9077C12.3793 12.948 12.2279 12.9315 12.0987 12.8616L8.16144 10.6119C8.07535 10.5627 8.00379 10.4917 7.95401 10.406C7.90423 10.3202 7.87799 10.2229 7.87796 10.1237V3.937C7.87796 3.78784 7.93722 3.64478 8.0427 3.5393C8.14818 3.43383 8.29125 3.37457 8.44042 3.37457V3.37457Z" fill="black"/>
</svg>
