<svg width="18" height="18" viewBox="0 0 18 18" fill="none" xmlns="http://www.w3.org/2000/svg">
<path d="M9 9C11.0711 9 12.75 7.32107 12.75 5.25C12.75 3.17893 11.0711 1.5 9 1.5C6.92893 1.5 5.25 3.17893 5.25 5.25C5.25 7.32107 6.92893 9 9 9Z" stroke="black" stroke-width="2"/>
<path d="M12.75 10.5H13.014C13.5623 10.5002 14.0917 10.7005 14.5027 11.0635C14.9137 11.4264 15.178 11.9269 15.246 12.471L15.5392 14.814C15.5656 15.0251 15.5468 15.2393 15.484 15.4426C15.4213 15.6458 15.316 15.8334 15.1752 15.9928C15.0344 16.1523 14.8613 16.28 14.6674 16.3674C14.4735 16.4549 14.2632 16.5 14.0505 16.5H3.94948C3.73677 16.5 3.52648 16.4549 3.33257 16.3674C3.13866 16.28 2.96556 16.1523 2.82477 15.9928C2.68397 15.8334 2.5787 15.6458 2.51594 15.4426C2.45318 15.2393 2.43436 15.0251 2.46073 14.814L2.75323 12.471C2.82126 11.9267 3.0858 11.4259 3.49711 11.063C3.90842 10.7 4.43817 10.4998 4.98673 10.5H5.24998" stroke="black" stroke-width="2" stroke-linecap="round" stroke-linejoin="round"/>
</svg>
