<svg width="313" height="352" viewBox="0 0 313 352" fill="none" xmlns="http://www.w3.org/2000/svg">
<path d="M4 2C4 3.10457 3.10457 4 2 4C0.89543 4 0 3.10457 0 2C0 0.89543 0.89543 0 2 0C3.10457 0 4 0.89543 4 2Z" fill="#737373"/>
<path d="M43 2C43 3.10457 42.1046 4 41 4C39.8954 4 39 3.10457 39 2C39 0.89543 39.8954 0 41 0C42.1046 0 43 0.89543 43 2Z" fill="#737373"/>
<path d="M82 2C82 3.10457 81.1046 4 80 4C78.8954 4 78 3.10457 78 2C78 0.89543 78.8954 0 80 0C81.1046 0 82 0.89543 82 2Z" fill="#737373"/>
<path d="M121 2C121 3.10457 120.105 4 119 4C117.895 4 117 3.10457 117 2C117 0.89543 117.895 0 119 0C120.105 0 121 0.89543 121 2Z" fill="#737373"/>
<path d="M160 2C160 3.10457 159.105 4 158 4C156.895 4 156 3.10457 156 2C156 0.89543 156.895 0 158 0C159.105 0 160 0.89543 160 2Z" fill="#737373"/>
<path d="M199 2C199 3.10457 198.105 4 197 4C195.895 4 195 3.10457 195 2C195 0.89543 195.895 0 197 0C198.105 0 199 0.89543 199 2Z" fill="#737373"/>
<path d="M238 2C238 3.10457 237.105 4 236 4C234.895 4 234 3.10457 234 2C234 0.89543 234.895 0 236 0C237.105 0 238 0.89543 238 2Z" fill="#737373"/>
<path d="M4 31C4 32.1046 3.10457 33 2 33C0.89543 33 0 32.1046 0 31C0 29.8954 0.89543 29 2 29C3.10457 29 4 29.8954 4 31Z" fill="#737373"/>
<path d="M43 31C43 32.1046 42.1046 33 41 33C39.8954 33 39 32.1046 39 31C39 29.8954 39.8954 29 41 29C42.1046 29 43 29.8954 43 31Z" fill="#737373"/>
<path d="M82 31C82 32.1046 81.1046 33 80 33C78.8954 33 78 32.1046 78 31C78 29.8954 78.8954 29 80 29C81.1046 29 82 29.8954 82 31Z" fill="#737373"/>
<path d="M121 31C121 32.1046 120.105 33 119 33C117.895 33 117 32.1046 117 31C117 29.8954 117.895 29 119 29C120.105 29 121 29.8954 121 31Z" fill="#737373"/>
<path d="M160 31C160 32.1046 159.105 33 158 33C156.895 33 156 32.1046 156 31C156 29.8954 156.895 29 158 29C159.105 29 160 29.8954 160 31Z" fill="#737373"/>
<path d="M199 31C199 32.1046 198.105 33 197 33C195.895 33 195 32.1046 195 31C195 29.8954 195.895 29 197 29C198.105 29 199 29.8954 199 31Z" fill="#737373"/>
<path d="M238 31C238 32.1046 237.105 33 236 33C234.895 33 234 32.1046 234 31C234 29.8954 234.895 29 236 29C237.105 29 238 29.8954 238 31Z" fill="#737373"/>
<path d="M4 118C4 119.105 3.10457 120 2 120C0.89543 120 0 119.105 0 118C0 116.895 0.89543 116 2 116C3.10457 116 4 116.895 4 118Z" fill="#737373"/>
<path d="M43 118C43 119.105 42.1046 120 41 120C39.8954 120 39 119.105 39 118C39 116.895 39.8954 116 41 116C42.1046 116 43 116.895 43 118Z" fill="#737373"/>
<path d="M82 118C82 119.105 81.1046 120 80 120C78.8954 120 78 119.105 78 118C78 116.895 78.8954 116 80 116C81.1046 116 82 116.895 82 118Z" fill="#737373"/>
<path d="M121 118C121 119.105 120.105 120 119 120C117.895 120 117 119.105 117 118C117 116.895 117.895 116 119 116C120.105 116 121 116.895 121 118Z" fill="#737373"/>
<path d="M160 118C160 119.105 159.105 120 158 120C156.895 120 156 119.105 156 118C156 116.895 156.895 116 158 116C159.105 116 160 116.895 160 118Z" fill="#737373"/>
<path d="M199 118C199 119.105 198.105 120 197 120C195.895 120 195 119.105 195 118C195 116.895 195.895 116 197 116C198.105 116 199 116.895 199 118Z" fill="#737373"/>
<path d="M238 118C238 119.105 237.105 120 236 120C234.895 120 234 119.105 234 118C234 116.895 234.895 116 236 116C237.105 116 238 116.895 238 118Z" fill="#737373"/>
<path d="M4 60C4 61.1046 3.10457 62 2 62C0.89543 62 0 61.1046 0 60C0 58.8954 0.89543 58 2 58C3.10457 58 4 58.8954 4 60Z" fill="#737373"/>
<path d="M43 60C43 61.1046 42.1046 62 41 62C39.8954 62 39 61.1046 39 60C39 58.8954 39.8954 58 41 58C42.1046 58 43 58.8954 43 60Z" fill="#737373"/>
<path d="M82 60C82 61.1046 81.1046 62 80 62C78.8954 62 78 61.1046 78 60C78 58.8954 78.8954 58 80 58C81.1046 58 82 58.8954 82 60Z" fill="#737373"/>
<path d="M121 60C121 61.1046 120.105 62 119 62C117.895 62 117 61.1046 117 60C117 58.8954 117.895 58 119 58C120.105 58 121 58.8954 121 60Z" fill="#737373"/>
<path d="M160 60C160 61.1046 159.105 62 158 62C156.895 62 156 61.1046 156 60C156 58.8954 156.895 58 158 58C159.105 58 160 58.8954 160 60Z" fill="#737373"/>
<path d="M199 60C199 61.1046 198.105 62 197 62C195.895 62 195 61.1046 195 60C195 58.8954 195.895 58 197 58C198.105 58 199 58.8954 199 60Z" fill="#737373"/>
<path d="M238 60C238 61.1046 237.105 62 236 62C234.895 62 234 61.1046 234 60C234 58.8954 234.895 58 236 58C237.105 58 238 58.8954 238 60Z" fill="#737373"/>
<path d="M4 89C4 90.1046 3.10457 91 2 91C0.89543 91 0 90.1046 0 89C0 87.8954 0.89543 87 2 87C3.10457 87 4 87.8954 4 89Z" fill="#737373"/>
<path d="M43 89C43 90.1046 42.1046 91 41 91C39.8954 91 39 90.1046 39 89C39 87.8954 39.8954 87 41 87C42.1046 87 43 87.8954 43 89Z" fill="#737373"/>
<path d="M82 89C82 90.1046 81.1046 91 80 91C78.8954 91 78 90.1046 78 89C78 87.8954 78.8954 87 80 87C81.1046 87 82 87.8954 82 89Z" fill="#737373"/>
<path d="M121 89C121 90.1046 120.105 91 119 91C117.895 91 117 90.1046 117 89C117 87.8954 117.895 87 119 87C120.105 87 121 87.8954 121 89Z" fill="#737373"/>
<path d="M160 89C160 90.1046 159.105 91 158 91C156.895 91 156 90.1046 156 89C156 87.8954 156.895 87 158 87C159.105 87 160 87.8954 160 89Z" fill="#737373"/>
<path d="M199 89C199 90.1046 198.105 91 197 91C195.895 91 195 90.1046 195 89C195 87.8954 195.895 87 197 87C198.105 87 199 87.8954 199 89Z" fill="#737373"/>
<path d="M238 89C238 90.1046 237.105 91 236 91C234.895 91 234 90.1046 234 89C234 87.8954 234.895 87 236 87C237.105 87 238 87.8954 238 89Z" fill="#737373"/>
<path d="M4 2C4 3.10457 3.10457 4 2 4C0.89543 4 0 3.10457 0 2C0 0.89543 0.89543 0 2 0C3.10457 0 4 0.89543 4 2Z" fill="#737373"/>
<path d="M43 2C43 3.10457 42.1046 4 41 4C39.8954 4 39 3.10457 39 2C39 0.89543 39.8954 0 41 0C42.1046 0 43 0.89543 43 2Z" fill="#737373"/>
<path d="M82 2C82 3.10457 81.1046 4 80 4C78.8954 4 78 3.10457 78 2C78 0.89543 78.8954 0 80 0C81.1046 0 82 0.89543 82 2Z" fill="#737373"/>
<path d="M121 2C121 3.10457 120.105 4 119 4C117.895 4 117 3.10457 117 2C117 0.89543 117.895 0 119 0C120.105 0 121 0.89543 121 2Z" fill="#737373"/>
<path d="M160 2C160 3.10457 159.105 4 158 4C156.895 4 156 3.10457 156 2C156 0.89543 156.895 0 158 0C159.105 0 160 0.89543 160 2Z" fill="#737373"/>
<path d="M199 2C199 3.10457 198.105 4 197 4C195.895 4 195 3.10457 195 2C195 0.89543 195.895 0 197 0C198.105 0 199 0.89543 199 2Z" fill="#737373"/>
<path d="M238 2C238 3.10457 237.105 4 236 4C234.895 4 234 3.10457 234 2C234 0.89543 234.895 0 236 0C237.105 0 238 0.89543 238 2Z" fill="#737373"/>
<path d="M4 31C4 32.1046 3.10457 33 2 33C0.89543 33 0 32.1046 0 31C0 29.8954 0.89543 29 2 29C3.10457 29 4 29.8954 4 31Z" fill="#737373"/>
<path d="M43 31C43 32.1046 42.1046 33 41 33C39.8954 33 39 32.1046 39 31C39 29.8954 39.8954 29 41 29C42.1046 29 43 29.8954 43 31Z" fill="#737373"/>
<path d="M82 31C82 32.1046 81.1046 33 80 33C78.8954 33 78 32.1046 78 31C78 29.8954 78.8954 29 80 29C81.1046 29 82 29.8954 82 31Z" fill="#737373"/>
<path d="M121 31C121 32.1046 120.105 33 119 33C117.895 33 117 32.1046 117 31C117 29.8954 117.895 29 119 29C120.105 29 121 29.8954 121 31Z" fill="#737373"/>
<path d="M160 31C160 32.1046 159.105 33 158 33C156.895 33 156 32.1046 156 31C156 29.8954 156.895 29 158 29C159.105 29 160 29.8954 160 31Z" fill="#737373"/>
<path d="M199 31C199 32.1046 198.105 33 197 33C195.895 33 195 32.1046 195 31C195 29.8954 195.895 29 197 29C198.105 29 199 29.8954 199 31Z" fill="#737373"/>
<path d="M238 31C238 32.1046 237.105 33 236 33C234.895 33 234 32.1046 234 31C234 29.8954 234.895 29 236 29C237.105 29 238 29.8954 238 31Z" fill="#737373"/>
<path d="M4 118C4 119.105 3.10457 120 2 120C0.89543 120 0 119.105 0 118C0 116.895 0.89543 116 2 116C3.10457 116 4 116.895 4 118Z" fill="#737373"/>
<path d="M43 118C43 119.105 42.1046 120 41 120C39.8954 120 39 119.105 39 118C39 116.895 39.8954 116 41 116C42.1046 116 43 116.895 43 118Z" fill="#737373"/>
<path d="M82 118C82 119.105 81.1046 120 80 120C78.8954 120 78 119.105 78 118C78 116.895 78.8954 116 80 116C81.1046 116 82 116.895 82 118Z" fill="#737373"/>
<path d="M121 118C121 119.105 120.105 120 119 120C117.895 120 117 119.105 117 118C117 116.895 117.895 116 119 116C120.105 116 121 116.895 121 118Z" fill="#737373"/>
<path d="M160 118C160 119.105 159.105 120 158 120C156.895 120 156 119.105 156 118C156 116.895 156.895 116 158 116C159.105 116 160 116.895 160 118Z" fill="#737373"/>
<path d="M199 118C199 119.105 198.105 120 197 120C195.895 120 195 119.105 195 118C195 116.895 195.895 116 197 116C198.105 116 199 116.895 199 118Z" fill="#737373"/>
<path d="M238 118C238 119.105 237.105 120 236 120C234.895 120 234 119.105 234 118C234 116.895 234.895 116 236 116C237.105 116 238 116.895 238 118Z" fill="#737373"/>
<path d="M4 60C4 61.1046 3.10457 62 2 62C0.89543 62 0 61.1046 0 60C0 58.8954 0.89543 58 2 58C3.10457 58 4 58.8954 4 60Z" fill="#737373"/>
<path d="M43 60C43 61.1046 42.1046 62 41 62C39.8954 62 39 61.1046 39 60C39 58.8954 39.8954 58 41 58C42.1046 58 43 58.8954 43 60Z" fill="#737373"/>
<path d="M82 60C82 61.1046 81.1046 62 80 62C78.8954 62 78 61.1046 78 60C78 58.8954 78.8954 58 80 58C81.1046 58 82 58.8954 82 60Z" fill="#737373"/>
<path d="M121 60C121 61.1046 120.105 62 119 62C117.895 62 117 61.1046 117 60C117 58.8954 117.895 58 119 58C120.105 58 121 58.8954 121 60Z" fill="#737373"/>
<path d="M160 60C160 61.1046 159.105 62 158 62C156.895 62 156 61.1046 156 60C156 58.8954 156.895 58 158 58C159.105 58 160 58.8954 160 60Z" fill="#737373"/>
<path d="M199 60C199 61.1046 198.105 62 197 62C195.895 62 195 61.1046 195 60C195 58.8954 195.895 58 197 58C198.105 58 199 58.8954 199 60Z" fill="#737373"/>
<path d="M238 60C238 61.1046 237.105 62 236 62C234.895 62 234 61.1046 234 60C234 58.8954 234.895 58 236 58C237.105 58 238 58.8954 238 60Z" fill="#737373"/>
<path d="M4 89C4 90.1046 3.10457 91 2 91C0.89543 91 0 90.1046 0 89C0 87.8954 0.89543 87 2 87C3.10457 87 4 87.8954 4 89Z" fill="#737373"/>
<path d="M43 89C43 90.1046 42.1046 91 41 91C39.8954 91 39 90.1046 39 89C39 87.8954 39.8954 87 41 87C42.1046 87 43 87.8954 43 89Z" fill="#737373"/>
<path d="M82 89C82 90.1046 81.1046 91 80 91C78.8954 91 78 90.1046 78 89C78 87.8954 78.8954 87 80 87C81.1046 87 82 87.8954 82 89Z" fill="#737373"/>
<path d="M121 89C121 90.1046 120.105 91 119 91C117.895 91 117 90.1046 117 89C117 87.8954 117.895 87 119 87C120.105 87 121 87.8954 121 89Z" fill="#737373"/>
<path d="M160 89C160 90.1046 159.105 91 158 91C156.895 91 156 90.1046 156 89C156 87.8954 156.895 87 158 87C159.105 87 160 87.8954 160 89Z" fill="#737373"/>
<path d="M199 89C199 90.1046 198.105 91 197 91C195.895 91 195 90.1046 195 89C195 87.8954 195.895 87 197 87C198.105 87 199 87.8954 199 89Z" fill="#737373"/>
<path d="M238 89C238 90.1046 237.105 91 236 91C234.895 91 234 90.1046 234 89C234 87.8954 234.895 87 236 87C237.105 87 238 87.8954 238 89Z" fill="#737373"/>
<path d="M4 147C4 148.105 3.10457 149 2 149C0.89543 149 0 148.105 0 147C0 145.895 0.89543 145 2 145C3.10457 145 4 145.895 4 147Z" fill="#737373"/>
<path d="M43 147C43 148.105 42.1046 149 41 149C39.8954 149 39 148.105 39 147C39 145.895 39.8954 145 41 145C42.1046 145 43 145.895 43 147Z" fill="#737373"/>
<path d="M82 147C82 148.105 81.1046 149 80 149C78.8954 149 78 148.105 78 147C78 145.895 78.8954 145 80 145C81.1046 145 82 145.895 82 147Z" fill="#737373"/>
<path d="M121 147C121 148.105 120.105 149 119 149C117.895 149 117 148.105 117 147C117 145.895 117.895 145 119 145C120.105 145 121 145.895 121 147Z" fill="#737373"/>
<path d="M160 147C160 148.105 159.105 149 158 149C156.895 149 156 148.105 156 147C156 145.895 156.895 145 158 145C159.105 145 160 145.895 160 147Z" fill="#737373"/>
<path d="M199 147C199 148.105 198.105 149 197 149C195.895 149 195 148.105 195 147C195 145.895 195.895 145 197 145C198.105 145 199 145.895 199 147Z" fill="#737373"/>
<path d="M238 147C238 148.105 237.105 149 236 149C234.895 149 234 148.105 234 147C234 145.895 234.895 145 236 145C237.105 145 238 145.895 238 147Z" fill="#737373"/>
<path d="M4 234C4 235.105 3.10457 236 2 236C0.89543 236 0 235.105 0 234C0 232.895 0.89543 232 2 232C3.10457 232 4 232.895 4 234Z" fill="#737373"/>
<path d="M43 234C43 235.105 42.1046 236 41 236C39.8954 236 39 235.105 39 234C39 232.895 39.8954 232 41 232C42.1046 232 43 232.895 43 234Z" fill="#737373"/>
<path d="M82 234C82 235.105 81.1046 236 80 236C78.8954 236 78 235.105 78 234C78 232.895 78.8954 232 80 232C81.1046 232 82 232.895 82 234Z" fill="#737373"/>
<path d="M121 234C121 235.105 120.105 236 119 236C117.895 236 117 235.105 117 234C117 232.895 117.895 232 119 232C120.105 232 121 232.895 121 234Z" fill="#737373"/>
<path d="M160 234C160 235.105 159.105 236 158 236C156.895 236 156 235.105 156 234C156 232.895 156.895 232 158 232C159.105 232 160 232.895 160 234Z" fill="#737373"/>
<path d="M199 234C199 235.105 198.105 236 197 236C195.895 236 195 235.105 195 234C195 232.895 195.895 232 197 232C198.105 232 199 232.895 199 234Z" fill="#737373"/>
<path d="M238 234C238 235.105 237.105 236 236 236C234.895 236 234 235.105 234 234C234 232.895 234.895 232 236 232C237.105 232 238 232.895 238 234Z" fill="#737373"/>
<path d="M4 176C4 177.105 3.10457 178 2 178C0.89543 178 0 177.105 0 176C0 174.895 0.89543 174 2 174C3.10457 174 4 174.895 4 176Z" fill="#737373"/>
<path d="M43 176C43 177.105 42.1046 178 41 178C39.8954 178 39 177.105 39 176C39 174.895 39.8954 174 41 174C42.1046 174 43 174.895 43 176Z" fill="#737373"/>
<path d="M82 176C82 177.105 81.1046 178 80 178C78.8954 178 78 177.105 78 176C78 174.895 78.8954 174 80 174C81.1046 174 82 174.895 82 176Z" fill="#737373"/>
<path d="M121 176C121 177.105 120.105 178 119 178C117.895 178 117 177.105 117 176C117 174.895 117.895 174 119 174C120.105 174 121 174.895 121 176Z" fill="#737373"/>
<path d="M160 176C160 177.105 159.105 178 158 178C156.895 178 156 177.105 156 176C156 174.895 156.895 174 158 174C159.105 174 160 174.895 160 176Z" fill="#737373"/>
<path d="M199 176C199 177.105 198.105 178 197 178C195.895 178 195 177.105 195 176C195 174.895 195.895 174 197 174C198.105 174 199 174.895 199 176Z" fill="#737373"/>
<path d="M238 176C238 177.105 237.105 178 236 178C234.895 178 234 177.105 234 176C234 174.895 234.895 174 236 174C237.105 174 238 174.895 238 176Z" fill="#737373"/>
<path d="M4 205C4 206.105 3.10457 207 2 207C0.89543 207 0 206.105 0 205C0 203.895 0.89543 203 2 203C3.10457 203 4 203.895 4 205Z" fill="#737373"/>
<path d="M43 205C43 206.105 42.1046 207 41 207C39.8954 207 39 206.105 39 205C39 203.895 39.8954 203 41 203C42.1046 203 43 203.895 43 205Z" fill="#737373"/>
<path d="M82 205C82 206.105 81.1046 207 80 207C78.8954 207 78 206.105 78 205C78 203.895 78.8954 203 80 203C81.1046 203 82 203.895 82 205Z" fill="#737373"/>
<path d="M121 205C121 206.105 120.105 207 119 207C117.895 207 117 206.105 117 205C117 203.895 117.895 203 119 203C120.105 203 121 203.895 121 205Z" fill="#737373"/>
<path d="M160 205C160 206.105 159.105 207 158 207C156.895 207 156 206.105 156 205C156 203.895 156.895 203 158 203C159.105 203 160 203.895 160 205Z" fill="#737373"/>
<path d="M199 205C199 206.105 198.105 207 197 207C195.895 207 195 206.105 195 205C195 203.895 195.895 203 197 203C198.105 203 199 203.895 199 205Z" fill="#737373"/>
<path d="M238 205C238 206.105 237.105 207 236 207C234.895 207 234 206.105 234 205C234 203.895 234.895 203 236 203C237.105 203 238 203.895 238 205Z" fill="#737373"/>
<path d="M4 263C4 264.105 3.10457 265 2 265C0.89543 265 0 264.105 0 263C0 261.895 0.89543 261 2 261C3.10457 261 4 261.895 4 263Z" fill="#737373"/>
<path d="M43 263C43 264.105 42.1046 265 41 265C39.8954 265 39 264.105 39 263C39 261.895 39.8954 261 41 261C42.1046 261 43 261.895 43 263Z" fill="#737373"/>
<path d="M82 263C82 264.105 81.1046 265 80 265C78.8954 265 78 264.105 78 263C78 261.895 78.8954 261 80 261C81.1046 261 82 261.895 82 263Z" fill="#737373"/>
<path d="M121 263C121 264.105 120.105 265 119 265C117.895 265 117 264.105 117 263C117 261.895 117.895 261 119 261C120.105 261 121 261.895 121 263Z" fill="#737373"/>
<path d="M160 263C160 264.105 159.105 265 158 265C156.895 265 156 264.105 156 263C156 261.895 156.895 261 158 261C159.105 261 160 261.895 160 263Z" fill="#737373"/>
<path d="M199 263C199 264.105 198.105 265 197 265C195.895 265 195 264.105 195 263C195 261.895 195.895 261 197 261C198.105 261 199 261.895 199 263Z" fill="#737373"/>
<path d="M238 263C238 264.105 237.105 265 236 265C234.895 265 234 264.105 234 263C234 261.895 234.895 261 236 261C237.105 261 238 261.895 238 263Z" fill="#737373"/>
<path d="M4 350C4 351.105 3.10457 352 2 352C0.89543 352 0 351.105 0 350C0 348.895 0.89543 348 2 348C3.10457 348 4 348.895 4 350Z" fill="#737373"/>
<path d="M43 350C43 351.105 42.1046 352 41 352C39.8954 352 39 351.105 39 350C39 348.895 39.8954 348 41 348C42.1046 348 43 348.895 43 350Z" fill="#737373"/>
<path d="M82 350C82 351.105 81.1046 352 80 352C78.8954 352 78 351.105 78 350C78 348.895 78.8954 348 80 348C81.1046 348 82 348.895 82 350Z" fill="#737373"/>
<path d="M121 350C121 351.105 120.105 352 119 352C117.895 352 117 351.105 117 350C117 348.895 117.895 348 119 348C120.105 348 121 348.895 121 350Z" fill="#737373"/>
<path d="M160 350C160 351.105 159.105 352 158 352C156.895 352 156 351.105 156 350C156 348.895 156.895 348 158 348C159.105 348 160 348.895 160 350Z" fill="#737373"/>
<path d="M199 350C199 351.105 198.105 352 197 352C195.895 352 195 351.105 195 350C195 348.895 195.895 348 197 348C198.105 348 199 348.895 199 350Z" fill="#737373"/>
<path d="M238 350C238 351.105 237.105 352 236 352C234.895 352 234 351.105 234 350C234 348.895 234.895 348 236 348C237.105 348 238 348.895 238 350Z" fill="#737373"/>
<path d="M4 292C4 293.105 3.10457 294 2 294C0.89543 294 0 293.105 0 292C0 290.895 0.89543 290 2 290C3.10457 290 4 290.895 4 292Z" fill="#737373"/>
<path d="M43 292C43 293.105 42.1046 294 41 294C39.8954 294 39 293.105 39 292C39 290.895 39.8954 290 41 290C42.1046 290 43 290.895 43 292Z" fill="#737373"/>
<path d="M82 292C82 293.105 81.1046 294 80 294C78.8954 294 78 293.105 78 292C78 290.895 78.8954 290 80 290C81.1046 290 82 290.895 82 292Z" fill="#737373"/>
<path d="M121 292C121 293.105 120.105 294 119 294C117.895 294 117 293.105 117 292C117 290.895 117.895 290 119 290C120.105 290 121 290.895 121 292Z" fill="#737373"/>
<path d="M160 292C160 293.105 159.105 294 158 294C156.895 294 156 293.105 156 292C156 290.895 156.895 290 158 290C159.105 290 160 290.895 160 292Z" fill="#737373"/>
<path d="M199 292C199 293.105 198.105 294 197 294C195.895 294 195 293.105 195 292C195 290.895 195.895 290 197 290C198.105 290 199 290.895 199 292Z" fill="#737373"/>
<path d="M238 292C238 293.105 237.105 294 236 294C234.895 294 234 293.105 234 292C234 290.895 234.895 290 236 290C237.105 290 238 290.895 238 292Z" fill="#737373"/>
<path d="M4 321C4 322.105 3.10457 323 2 323C0.89543 323 0 322.105 0 321C0 319.895 0.89543 319 2 319C3.10457 319 4 319.895 4 321Z" fill="#737373"/>
<path d="M43 321C43 322.105 42.1046 323 41 323C39.8954 323 39 322.105 39 321C39 319.895 39.8954 319 41 319C42.1046 319 43 319.895 43 321Z" fill="#737373"/>
<path d="M82 321C82 322.105 81.1046 323 80 323C78.8954 323 78 322.105 78 321C78 319.895 78.8954 319 80 319C81.1046 319 82 319.895 82 321Z" fill="#737373"/>
<path d="M121 321C121 322.105 120.105 323 119 323C117.895 323 117 322.105 117 321C117 319.895 117.895 319 119 319C120.105 319 121 319.895 121 321Z" fill="#737373"/>
<path d="M160 321C160 322.105 159.105 323 158 323C156.895 323 156 322.105 156 321C156 319.895 156.895 319 158 319C159.105 319 160 319.895 160 321Z" fill="#737373"/>
<path d="M199 321C199 322.105 198.105 323 197 323C195.895 323 195 322.105 195 321C195 319.895 195.895 319 197 319C198.105 319 199 319.895 199 321Z" fill="#737373"/>
<path d="M238 321C238 322.105 237.105 323 236 323C234.895 323 234 322.105 234 321C234 319.895 234.895 319 236 319C237.105 319 238 319.895 238 321Z" fill="#737373"/>
<path d="M4 147C4 148.105 3.10457 149 2 149C0.89543 149 0 148.105 0 147C0 145.895 0.89543 145 2 145C3.10457 145 4 145.895 4 147Z" fill="#737373"/>
<path d="M43 147C43 148.105 42.1046 149 41 149C39.8954 149 39 148.105 39 147C39 145.895 39.8954 145 41 145C42.1046 145 43 145.895 43 147Z" fill="#737373"/>
<path d="M82 147C82 148.105 81.1046 149 80 149C78.8954 149 78 148.105 78 147C78 145.895 78.8954 145 80 145C81.1046 145 82 145.895 82 147Z" fill="#737373"/>
<path d="M121 147C121 148.105 120.105 149 119 149C117.895 149 117 148.105 117 147C117 145.895 117.895 145 119 145C120.105 145 121 145.895 121 147Z" fill="#737373"/>
<path d="M160 147C160 148.105 159.105 149 158 149C156.895 149 156 148.105 156 147C156 145.895 156.895 145 158 145C159.105 145 160 145.895 160 147Z" fill="#737373"/>
<path d="M199 147C199 148.105 198.105 149 197 149C195.895 149 195 148.105 195 147C195 145.895 195.895 145 197 145C198.105 145 199 145.895 199 147Z" fill="#737373"/>
<path d="M238 147C238 148.105 237.105 149 236 149C234.895 149 234 148.105 234 147C234 145.895 234.895 145 236 145C237.105 145 238 145.895 238 147Z" fill="#737373"/>
<path d="M4 234C4 235.105 3.10457 236 2 236C0.89543 236 0 235.105 0 234C0 232.895 0.89543 232 2 232C3.10457 232 4 232.895 4 234Z" fill="#737373"/>
<path d="M43 234C43 235.105 42.1046 236 41 236C39.8954 236 39 235.105 39 234C39 232.895 39.8954 232 41 232C42.1046 232 43 232.895 43 234Z" fill="#737373"/>
<path d="M82 234C82 235.105 81.1046 236 80 236C78.8954 236 78 235.105 78 234C78 232.895 78.8954 232 80 232C81.1046 232 82 232.895 82 234Z" fill="#737373"/>
<path d="M121 234C121 235.105 120.105 236 119 236C117.895 236 117 235.105 117 234C117 232.895 117.895 232 119 232C120.105 232 121 232.895 121 234Z" fill="#737373"/>
<path d="M160 234C160 235.105 159.105 236 158 236C156.895 236 156 235.105 156 234C156 232.895 156.895 232 158 232C159.105 232 160 232.895 160 234Z" fill="#737373"/>
<path d="M199 234C199 235.105 198.105 236 197 236C195.895 236 195 235.105 195 234C195 232.895 195.895 232 197 232C198.105 232 199 232.895 199 234Z" fill="#737373"/>
<path d="M238 234C238 235.105 237.105 236 236 236C234.895 236 234 235.105 234 234C234 232.895 234.895 232 236 232C237.105 232 238 232.895 238 234Z" fill="#737373"/>
<path d="M4 176C4 177.105 3.10457 178 2 178C0.89543 178 0 177.105 0 176C0 174.895 0.89543 174 2 174C3.10457 174 4 174.895 4 176Z" fill="#737373"/>
<path d="M43 176C43 177.105 42.1046 178 41 178C39.8954 178 39 177.105 39 176C39 174.895 39.8954 174 41 174C42.1046 174 43 174.895 43 176Z" fill="#737373"/>
<path d="M82 176C82 177.105 81.1046 178 80 178C78.8954 178 78 177.105 78 176C78 174.895 78.8954 174 80 174C81.1046 174 82 174.895 82 176Z" fill="#737373"/>
<path d="M121 176C121 177.105 120.105 178 119 178C117.895 178 117 177.105 117 176C117 174.895 117.895 174 119 174C120.105 174 121 174.895 121 176Z" fill="#737373"/>
<path d="M160 176C160 177.105 159.105 178 158 178C156.895 178 156 177.105 156 176C156 174.895 156.895 174 158 174C159.105 174 160 174.895 160 176Z" fill="#737373"/>
<path d="M199 176C199 177.105 198.105 178 197 178C195.895 178 195 177.105 195 176C195 174.895 195.895 174 197 174C198.105 174 199 174.895 199 176Z" fill="#737373"/>
<path d="M238 176C238 177.105 237.105 178 236 178C234.895 178 234 177.105 234 176C234 174.895 234.895 174 236 174C237.105 174 238 174.895 238 176Z" fill="#737373"/>
<path d="M4 205C4 206.105 3.10457 207 2 207C0.89543 207 0 206.105 0 205C0 203.895 0.89543 203 2 203C3.10457 203 4 203.895 4 205Z" fill="#737373"/>
<path d="M43 205C43 206.105 42.1046 207 41 207C39.8954 207 39 206.105 39 205C39 203.895 39.8954 203 41 203C42.1046 203 43 203.895 43 205Z" fill="#737373"/>
<path d="M82 205C82 206.105 81.1046 207 80 207C78.8954 207 78 206.105 78 205C78 203.895 78.8954 203 80 203C81.1046 203 82 203.895 82 205Z" fill="#737373"/>
<path d="M121 205C121 206.105 120.105 207 119 207C117.895 207 117 206.105 117 205C117 203.895 117.895 203 119 203C120.105 203 121 203.895 121 205Z" fill="#737373"/>
<path d="M160 205C160 206.105 159.105 207 158 207C156.895 207 156 206.105 156 205C156 203.895 156.895 203 158 203C159.105 203 160 203.895 160 205Z" fill="#737373"/>
<path d="M199 205C199 206.105 198.105 207 197 207C195.895 207 195 206.105 195 205C195 203.895 195.895 203 197 203C198.105 203 199 203.895 199 205Z" fill="#737373"/>
<path d="M238 205C238 206.105 237.105 207 236 207C234.895 207 234 206.105 234 205C234 203.895 234.895 203 236 203C237.105 203 238 203.895 238 205Z" fill="#737373"/>
<path d="M4 263C4 264.105 3.10457 265 2 265C0.89543 265 0 264.105 0 263C0 261.895 0.89543 261 2 261C3.10457 261 4 261.895 4 263Z" fill="#737373"/>
<path d="M43 263C43 264.105 42.1046 265 41 265C39.8954 265 39 264.105 39 263C39 261.895 39.8954 261 41 261C42.1046 261 43 261.895 43 263Z" fill="#737373"/>
<path d="M82 263C82 264.105 81.1046 265 80 265C78.8954 265 78 264.105 78 263C78 261.895 78.8954 261 80 261C81.1046 261 82 261.895 82 263Z" fill="#737373"/>
<path d="M121 263C121 264.105 120.105 265 119 265C117.895 265 117 264.105 117 263C117 261.895 117.895 261 119 261C120.105 261 121 261.895 121 263Z" fill="#737373"/>
<path d="M160 263C160 264.105 159.105 265 158 265C156.895 265 156 264.105 156 263C156 261.895 156.895 261 158 261C159.105 261 160 261.895 160 263Z" fill="#737373"/>
<path d="M199 263C199 264.105 198.105 265 197 265C195.895 265 195 264.105 195 263C195 261.895 195.895 261 197 261C198.105 261 199 261.895 199 263Z" fill="#737373"/>
<path d="M238 263C238 264.105 237.105 265 236 265C234.895 265 234 264.105 234 263C234 261.895 234.895 261 236 261C237.105 261 238 261.895 238 263Z" fill="#737373"/>
<path d="M4 350C4 351.105 3.10457 352 2 352C0.89543 352 0 351.105 0 350C0 348.895 0.89543 348 2 348C3.10457 348 4 348.895 4 350Z" fill="#737373"/>
<path d="M43 350C43 351.105 42.1046 352 41 352C39.8954 352 39 351.105 39 350C39 348.895 39.8954 348 41 348C42.1046 348 43 348.895 43 350Z" fill="#737373"/>
<path d="M82 350C82 351.105 81.1046 352 80 352C78.8954 352 78 351.105 78 350C78 348.895 78.8954 348 80 348C81.1046 348 82 348.895 82 350Z" fill="#737373"/>
<path d="M121 350C121 351.105 120.105 352 119 352C117.895 352 117 351.105 117 350C117 348.895 117.895 348 119 348C120.105 348 121 348.895 121 350Z" fill="#737373"/>
<path d="M160 350C160 351.105 159.105 352 158 352C156.895 352 156 351.105 156 350C156 348.895 156.895 348 158 348C159.105 348 160 348.895 160 350Z" fill="#737373"/>
<path d="M199 350C199 351.105 198.105 352 197 352C195.895 352 195 351.105 195 350C195 348.895 195.895 348 197 348C198.105 348 199 348.895 199 350Z" fill="#737373"/>
<path d="M238 350C238 351.105 237.105 352 236 352C234.895 352 234 351.105 234 350C234 348.895 234.895 348 236 348C237.105 348 238 348.895 238 350Z" fill="#737373"/>
<path d="M4 292C4 293.105 3.10457 294 2 294C0.89543 294 0 293.105 0 292C0 290.895 0.89543 290 2 290C3.10457 290 4 290.895 4 292Z" fill="#737373"/>
<path d="M43 292C43 293.105 42.1046 294 41 294C39.8954 294 39 293.105 39 292C39 290.895 39.8954 290 41 290C42.1046 290 43 290.895 43 292Z" fill="#737373"/>
<path d="M82 292C82 293.105 81.1046 294 80 294C78.8954 294 78 293.105 78 292C78 290.895 78.8954 290 80 290C81.1046 290 82 290.895 82 292Z" fill="#737373"/>
<path d="M121 292C121 293.105 120.105 294 119 294C117.895 294 117 293.105 117 292C117 290.895 117.895 290 119 290C120.105 290 121 290.895 121 292Z" fill="#737373"/>
<path d="M160 292C160 293.105 159.105 294 158 294C156.895 294 156 293.105 156 292C156 290.895 156.895 290 158 290C159.105 290 160 290.895 160 292Z" fill="#737373"/>
<path d="M199 292C199 293.105 198.105 294 197 294C195.895 294 195 293.105 195 292C195 290.895 195.895 290 197 290C198.105 290 199 290.895 199 292Z" fill="#737373"/>
<path d="M238 292C238 293.105 237.105 294 236 294C234.895 294 234 293.105 234 292C234 290.895 234.895 290 236 290C237.105 290 238 290.895 238 292Z" fill="#737373"/>
<path d="M4 321C4 322.105 3.10457 323 2 323C0.89543 323 0 322.105 0 321C0 319.895 0.89543 319 2 319C3.10457 319 4 319.895 4 321Z" fill="#737373"/>
<path d="M43 321C43 322.105 42.1046 323 41 323C39.8954 323 39 322.105 39 321C39 319.895 39.8954 319 41 319C42.1046 319 43 319.895 43 321Z" fill="#737373"/>
<path d="M82 321C82 322.105 81.1046 323 80 323C78.8954 323 78 322.105 78 321C78 319.895 78.8954 319 80 319C81.1046 319 82 319.895 82 321Z" fill="#737373"/>
<path d="M121 321C121 322.105 120.105 323 119 323C117.895 323 117 322.105 117 321C117 319.895 117.895 319 119 319C120.105 319 121 319.895 121 321Z" fill="#737373"/>
<path d="M160 321C160 322.105 159.105 323 158 323C156.895 323 156 322.105 156 321C156 319.895 156.895 319 158 319C159.105 319 160 319.895 160 321Z" fill="#737373"/>
<path d="M199 321C199 322.105 198.105 323 197 323C195.895 323 195 322.105 195 321C195 319.895 195.895 319 197 319C198.105 319 199 319.895 199 321Z" fill="#737373"/>
<path d="M238 321C238 322.105 237.105 323 236 323C234.895 323 234 322.105 234 321C234 319.895 234.895 319 236 319C237.105 319 238 319.895 238 321Z" fill="#737373"/>
<path d="M274 2C274 3.10457 273.105 4 272 4C270.895 4 270 3.10457 270 2C270 0.89543 270.895 0 272 0C273.105 0 274 0.89543 274 2Z" fill="#737373"/>
<path d="M313 2C313 3.10457 312.105 4 311 4C309.895 4 309 3.10457 309 2C309 0.89543 309.895 0 311 0C312.105 0 313 0.89543 313 2Z" fill="#737373"/>
<path d="M274 31C274 32.1046 273.105 33 272 33C270.895 33 270 32.1046 270 31C270 29.8954 270.895 29 272 29C273.105 29 274 29.8954 274 31Z" fill="#737373"/>
<path d="M313 31C313 32.1046 312.105 33 311 33C309.895 33 309 32.1046 309 31C309 29.8954 309.895 29 311 29C312.105 29 313 29.8954 313 31Z" fill="#737373"/>
<path d="M274 118C274 119.105 273.105 120 272 120C270.895 120 270 119.105 270 118C270 116.895 270.895 116 272 116C273.105 116 274 116.895 274 118Z" fill="#737373"/>
<path d="M313 118C313 119.105 312.105 120 311 120C309.895 120 309 119.105 309 118C309 116.895 309.895 116 311 116C312.105 116 313 116.895 313 118Z" fill="#737373"/>
<path d="M274 60C274 61.1046 273.105 62 272 62C270.895 62 270 61.1046 270 60C270 58.8954 270.895 58 272 58C273.105 58 274 58.8954 274 60Z" fill="#737373"/>
<path d="M313 60C313 61.1046 312.105 62 311 62C309.895 62 309 61.1046 309 60C309 58.8954 309.895 58 311 58C312.105 58 313 58.8954 313 60Z" fill="#737373"/>
<path d="M274 89C274 90.1046 273.105 91 272 91C270.895 91 270 90.1046 270 89C270 87.8954 270.895 87 272 87C273.105 87 274 87.8954 274 89Z" fill="#737373"/>
<path d="M313 89C313 90.1046 312.105 91 311 91C309.895 91 309 90.1046 309 89C309 87.8954 309.895 87 311 87C312.105 87 313 87.8954 313 89Z" fill="#737373"/>
<path d="M274 2C274 3.10457 273.105 4 272 4C270.895 4 270 3.10457 270 2C270 0.89543 270.895 0 272 0C273.105 0 274 0.89543 274 2Z" fill="#737373"/>
<path d="M313 2C313 3.10457 312.105 4 311 4C309.895 4 309 3.10457 309 2C309 0.89543 309.895 0 311 0C312.105 0 313 0.89543 313 2Z" fill="#737373"/>
<path d="M274 31C274 32.1046 273.105 33 272 33C270.895 33 270 32.1046 270 31C270 29.8954 270.895 29 272 29C273.105 29 274 29.8954 274 31Z" fill="#737373"/>
<path d="M313 31C313 32.1046 312.105 33 311 33C309.895 33 309 32.1046 309 31C309 29.8954 309.895 29 311 29C312.105 29 313 29.8954 313 31Z" fill="#737373"/>
<path d="M274 118C274 119.105 273.105 120 272 120C270.895 120 270 119.105 270 118C270 116.895 270.895 116 272 116C273.105 116 274 116.895 274 118Z" fill="#737373"/>
<path d="M313 118C313 119.105 312.105 120 311 120C309.895 120 309 119.105 309 118C309 116.895 309.895 116 311 116C312.105 116 313 116.895 313 118Z" fill="#737373"/>
<path d="M274 60C274 61.1046 273.105 62 272 62C270.895 62 270 61.1046 270 60C270 58.8954 270.895 58 272 58C273.105 58 274 58.8954 274 60Z" fill="#737373"/>
<path d="M313 60C313 61.1046 312.105 62 311 62C309.895 62 309 61.1046 309 60C309 58.8954 309.895 58 311 58C312.105 58 313 58.8954 313 60Z" fill="#737373"/>
<path d="M274 89C274 90.1046 273.105 91 272 91C270.895 91 270 90.1046 270 89C270 87.8954 270.895 87 272 87C273.105 87 274 87.8954 274 89Z" fill="#737373"/>
<path d="M313 89C313 90.1046 312.105 91 311 91C309.895 91 309 90.1046 309 89C309 87.8954 309.895 87 311 87C312.105 87 313 87.8954 313 89Z" fill="#737373"/>
<path d="M274 147C274 148.105 273.105 149 272 149C270.895 149 270 148.105 270 147C270 145.895 270.895 145 272 145C273.105 145 274 145.895 274 147Z" fill="#737373"/>
<path d="M313 147C313 148.105 312.105 149 311 149C309.895 149 309 148.105 309 147C309 145.895 309.895 145 311 145C312.105 145 313 145.895 313 147Z" fill="#737373"/>
<path d="M274 234C274 235.105 273.105 236 272 236C270.895 236 270 235.105 270 234C270 232.895 270.895 232 272 232C273.105 232 274 232.895 274 234Z" fill="#737373"/>
<path d="M313 234C313 235.105 312.105 236 311 236C309.895 236 309 235.105 309 234C309 232.895 309.895 232 311 232C312.105 232 313 232.895 313 234Z" fill="#737373"/>
<path d="M274 176C274 177.105 273.105 178 272 178C270.895 178 270 177.105 270 176C270 174.895 270.895 174 272 174C273.105 174 274 174.895 274 176Z" fill="#737373"/>
<path d="M313 176C313 177.105 312.105 178 311 178C309.895 178 309 177.105 309 176C309 174.895 309.895 174 311 174C312.105 174 313 174.895 313 176Z" fill="#737373"/>
<path d="M274 205C274 206.105 273.105 207 272 207C270.895 207 270 206.105 270 205C270 203.895 270.895 203 272 203C273.105 203 274 203.895 274 205Z" fill="#737373"/>
<path d="M313 205C313 206.105 312.105 207 311 207C309.895 207 309 206.105 309 205C309 203.895 309.895 203 311 203C312.105 203 313 203.895 313 205Z" fill="#737373"/>
<path d="M274 263C274 264.105 273.105 265 272 265C270.895 265 270 264.105 270 263C270 261.895 270.895 261 272 261C273.105 261 274 261.895 274 263Z" fill="#737373"/>
<path d="M313 263C313 264.105 312.105 265 311 265C309.895 265 309 264.105 309 263C309 261.895 309.895 261 311 261C312.105 261 313 261.895 313 263Z" fill="#737373"/>
<path d="M274 350C274 351.105 273.105 352 272 352C270.895 352 270 351.105 270 350C270 348.895 270.895 348 272 348C273.105 348 274 348.895 274 350Z" fill="#737373"/>
<path d="M313 350C313 351.105 312.105 352 311 352C309.895 352 309 351.105 309 350C309 348.895 309.895 348 311 348C312.105 348 313 348.895 313 350Z" fill="#737373"/>
<path d="M274 292C274 293.105 273.105 294 272 294C270.895 294 270 293.105 270 292C270 290.895 270.895 290 272 290C273.105 290 274 290.895 274 292Z" fill="#737373"/>
<path d="M313 292C313 293.105 312.105 294 311 294C309.895 294 309 293.105 309 292C309 290.895 309.895 290 311 290C312.105 290 313 290.895 313 292Z" fill="#737373"/>
<path d="M274 321C274 322.105 273.105 323 272 323C270.895 323 270 322.105 270 321C270 319.895 270.895 319 272 319C273.105 319 274 319.895 274 321Z" fill="#737373"/>
<path d="M313 321C313 322.105 312.105 323 311 323C309.895 323 309 322.105 309 321C309 319.895 309.895 319 311 319C312.105 319 313 319.895 313 321Z" fill="#737373"/>
<path d="M274 147C274 148.105 273.105 149 272 149C270.895 149 270 148.105 270 147C270 145.895 270.895 145 272 145C273.105 145 274 145.895 274 147Z" fill="#737373"/>
<path d="M313 147C313 148.105 312.105 149 311 149C309.895 149 309 148.105 309 147C309 145.895 309.895 145 311 145C312.105 145 313 145.895 313 147Z" fill="#737373"/>
<path d="M274 234C274 235.105 273.105 236 272 236C270.895 236 270 235.105 270 234C270 232.895 270.895 232 272 232C273.105 232 274 232.895 274 234Z" fill="#737373"/>
<path d="M313 234C313 235.105 312.105 236 311 236C309.895 236 309 235.105 309 234C309 232.895 309.895 232 311 232C312.105 232 313 232.895 313 234Z" fill="#737373"/>
<path d="M274 176C274 177.105 273.105 178 272 178C270.895 178 270 177.105 270 176C270 174.895 270.895 174 272 174C273.105 174 274 174.895 274 176Z" fill="#737373"/>
<path d="M313 176C313 177.105 312.105 178 311 178C309.895 178 309 177.105 309 176C309 174.895 309.895 174 311 174C312.105 174 313 174.895 313 176Z" fill="#737373"/>
<path d="M274 205C274 206.105 273.105 207 272 207C270.895 207 270 206.105 270 205C270 203.895 270.895 203 272 203C273.105 203 274 203.895 274 205Z" fill="#737373"/>
<path d="M313 205C313 206.105 312.105 207 311 207C309.895 207 309 206.105 309 205C309 203.895 309.895 203 311 203C312.105 203 313 203.895 313 205Z" fill="#737373"/>
<path d="M274 263C274 264.105 273.105 265 272 265C270.895 265 270 264.105 270 263C270 261.895 270.895 261 272 261C273.105 261 274 261.895 274 263Z" fill="#737373"/>
<path d="M313 263C313 264.105 312.105 265 311 265C309.895 265 309 264.105 309 263C309 261.895 309.895 261 311 261C312.105 261 313 261.895 313 263Z" fill="#737373"/>
<path d="M274 350C274 351.105 273.105 352 272 352C270.895 352 270 351.105 270 350C270 348.895 270.895 348 272 348C273.105 348 274 348.895 274 350Z" fill="#737373"/>
<path d="M313 350C313 351.105 312.105 352 311 352C309.895 352 309 351.105 309 350C309 348.895 309.895 348 311 348C312.105 348 313 348.895 313 350Z" fill="#737373"/>
<path d="M274 292C274 293.105 273.105 294 272 294C270.895 294 270 293.105 270 292C270 290.895 270.895 290 272 290C273.105 290 274 290.895 274 292Z" fill="#737373"/>
<path d="M313 292C313 293.105 312.105 294 311 294C309.895 294 309 293.105 309 292C309 290.895 309.895 290 311 290C312.105 290 313 290.895 313 292Z" fill="#737373"/>
<path d="M274 321C274 322.105 273.105 323 272 323C270.895 323 270 322.105 270 321C270 319.895 270.895 319 272 319C273.105 319 274 319.895 274 321Z" fill="#737373"/>
<path d="M313 321C313 322.105 312.105 323 311 323C309.895 323 309 322.105 309 321C309 319.895 309.895 319 311 319C312.105 319 313 319.895 313 321Z" fill="#737373"/>
</svg>
