<svg width="32" height="32" viewBox="0 0 32 32" fill="none" xmlns="http://www.w3.org/2000/svg">
<path d="M16 3C13.4288 3 10.9154 3.76244 8.77759 5.1909C6.63975 6.61935 4.97351 8.64968 3.98957 11.0251C3.00563 13.4006 2.74819 16.0144 3.2498 18.5362C3.75141 21.0579 4.98953 23.3743 6.80762 25.1924C8.6257 27.0105 10.9421 28.2486 13.4638 28.7502C15.9856 29.2518 18.5995 28.9944 20.9749 28.0104C23.3503 27.0265 25.3807 25.3603 26.8091 23.2224C28.2376 21.0846 29 18.5712 29 16C28.9934 12.5542 27.6216 9.25145 25.1851 6.81491C22.7486 4.37837 19.4458 3.00661 16 3ZM16 27C13.8244 27 11.6977 26.3549 9.88873 25.1462C8.07979 23.9375 6.66989 22.2195 5.83733 20.2095C5.00477 18.1995 4.78693 15.9878 5.21137 13.854C5.63581 11.7202 6.68345 9.7602 8.22183 8.22183C9.76021 6.68345 11.7202 5.6358 13.854 5.21136C15.9878 4.78692 18.1995 5.00476 20.2095 5.83733C22.2195 6.66989 23.9375 8.07979 25.1462 9.88873C26.3549 11.6977 27 13.8244 27 16C26.9967 18.9164 25.8367 21.7123 23.7745 23.7745C21.7123 25.8367 18.9164 26.9967 16 27ZM17.5 16C17.5 16.2967 17.412 16.5867 17.2472 16.8334C17.0824 17.08 16.8481 17.2723 16.574 17.3858C16.2999 17.4993 15.9983 17.5291 15.7074 17.4712C15.4164 17.4133 15.1491 17.2704 14.9393 17.0607C14.7296 16.8509 14.5867 16.5836 14.5288 16.2926C14.471 16.0017 14.5007 15.7001 14.6142 15.426C14.7277 15.1519 14.92 14.9176 15.1667 14.7528C15.4133 14.588 15.7033 14.5 16 14.5C16.3978 14.5 16.7794 14.658 17.0607 14.9393C17.342 15.2206 17.5 15.6022 17.5 16ZM17.5 22C17.5 22.2967 17.412 22.5867 17.2472 22.8334C17.0824 23.08 16.8481 23.2723 16.574 23.3858C16.2999 23.4993 15.9983 23.5291 15.7074 23.4712C15.4164 23.4133 15.1491 23.2704 14.9393 23.0607C14.7296 22.8509 14.5867 22.5836 14.5288 22.2926C14.471 22.0017 14.5007 21.7001 14.6142 21.426C14.7277 21.1519 14.92 20.9176 15.1667 20.7528C15.4133 20.588 15.7033 20.5 16 20.5C16.3978 20.5 16.7794 20.658 17.0607 20.9393C17.342 21.2206 17.5 21.6022 17.5 22ZM17.5 10C17.5 10.2967 17.412 10.5867 17.2472 10.8334C17.0824 11.08 16.8481 11.2723 16.574 11.3858C16.2999 11.4994 15.9983 11.5291 15.7074 11.4712C15.4164 11.4133 15.1491 11.2704 14.9393 11.0607C14.7296 10.8509 14.5867 10.5836 14.5288 10.2926C14.471 10.0017 14.5007 9.70006 14.6142 9.42597C14.7277 9.15189 14.92 8.91762 15.1667 8.7528C15.4133 8.58797 15.7033 8.5 16 8.5C16.3978 8.5 16.7794 8.65804 17.0607 8.93934C17.342 9.22064 17.5 9.60218 17.5 10Z" fill="black"/>
</svg>
