<svg width="18" height="18" viewBox="0 0 18 18" fill="none" xmlns="http://www.w3.org/2000/svg">
<path d="M6.30481 4.03348H8.08315V12.6823C8.08315 12.7948 8.16979 12.8869 8.27567 12.8869H9.71952C9.8254 12.8869 9.91203 12.7948 9.91203 12.6823V4.03348H11.6952C11.8564 4.03348 11.9455 3.83663 11.8468 3.70368L9.1516 0.0784735C9.1336 0.0540282 9.11059 0.0342583 9.08432 0.0206621C9.05805 0.00706589 9.02922 0 9 0C8.97078 0 8.94195 0.00706589 8.91568 0.0206621C8.88941 0.0342583 8.8664 0.0540282 8.8484 0.0784735L6.15321 3.70113C6.05455 3.83663 6.14358 4.03348 6.30481 4.03348ZM17.8075 11.9154H16.3636C16.2578 11.9154 16.1711 12.0074 16.1711 12.1199V16.057H1.82888V12.1199C1.82888 12.0074 1.74225 11.9154 1.63636 11.9154H0.192513C0.086631 11.9154 0 12.0074 0 12.1199V17.1819C0 17.6344 0.344118 18 0.770053 18H17.2299C17.6559 18 18 17.6344 18 17.1819V12.1199C18 12.0074 17.9134 11.9154 17.8075 11.9154Z" fill="black"/>
</svg>
