<svg width="18" height="18" viewBox="0 0 18 18" fill="none" xmlns="http://www.w3.org/2000/svg">
<path fill-rule="evenodd" clip-rule="evenodd" d="M12.75 5.25C12.75 4.65326 12.5129 4.08097 12.091 3.65901C11.669 3.23705 11.0967 3 10.5 3H7.5C6.90326 3 6.33097 3.23705 5.90901 3.65901C5.48705 4.08097 5.25 4.65326 5.25 5.25H4.5C3.90326 5.25 3.33097 5.48705 2.90901 5.90901C2.48705 6.33097 2.25 6.90326 2.25 7.5V13.5C2.25 14.0967 2.48705 14.669 2.90901 15.091C3.33097 15.5129 3.90326 15.75 4.5 15.75H13.5C14.0967 15.75 14.669 15.5129 15.091 15.091C15.5129 14.669 15.75 14.0967 15.75 13.5V7.5C15.75 6.90326 15.5129 6.33097 15.091 5.90901C14.669 5.48705 14.0967 5.25 13.5 5.25H12.75ZM10.5 4.5H7.5C7.30109 4.5 7.11032 4.57902 6.96967 4.71967C6.82902 4.86032 6.75 5.05109 6.75 5.25H11.25C11.25 5.05109 11.171 4.86032 11.0303 4.71967C10.8897 4.57902 10.6989 4.5 10.5 4.5ZM4.5 6.75H13.5C13.6989 6.75 13.8897 6.82902 14.0303 6.96967C14.171 7.11032 14.25 7.30109 14.25 7.5V13.5C14.25 13.6989 14.171 13.8897 14.0303 14.0303C13.8897 14.171 13.6989 14.25 13.5 14.25H4.5C4.30109 14.25 4.11032 14.171 3.96967 14.0303C3.82902 13.8897 3.75 13.6989 3.75 13.5V7.5C3.75 7.30109 3.82902 7.11032 3.96967 6.96967C4.11032 6.82902 4.30109 6.75 4.5 6.75Z" fill="black"/>
</svg>
