<svg width="18" height="18" viewBox="0 0 18 18" fill="none" xmlns="http://www.w3.org/2000/svg">
<path d="M8.927 4.4856C8.48199 4.4856 8.04698 4.61756 7.67697 4.86479C7.30696 5.11202 7.01857 5.46342 6.84827 5.87456C6.67798 6.28569 6.63342 6.73809 6.72024 7.17455C6.80705 7.61101 7.02134 8.01192 7.33601 8.32659C7.65068 8.64125 8.05159 8.85555 8.48805 8.94236C8.92451 9.02918 9.37691 8.98462 9.78804 8.81432C10.1992 8.64403 10.5506 8.35564 10.7978 7.98563C11.045 7.61562 11.177 7.1806 11.177 6.7356C11.1763 6.13907 10.9391 5.56717 10.5172 5.14536C10.0954 4.72355 9.52353 4.48627 8.927 4.4856ZM8.927 7.8606C8.7045 7.8606 8.48699 7.79462 8.30199 7.671C8.11698 7.54738 7.97279 7.37168 7.88764 7.16611C7.80249 6.96055 7.78021 6.73435 7.82362 6.51612C7.86703 6.29789 7.97417 6.09743 8.13151 5.9401C8.28884 5.78277 8.4893 5.67562 8.70753 5.63221C8.92575 5.5888 9.15195 5.61108 9.35752 5.69623C9.56309 5.78138 9.73879 5.92557 9.86241 6.11058C9.98602 6.29558 10.052 6.51309 10.052 6.7356C10.0517 7.03386 9.93302 7.31981 9.72212 7.53071C9.51121 7.74161 9.22527 7.86025 8.927 7.8606Z" fill="black"/>
<path d="M13.2506 2.40875C12.1816 1.34001 10.7546 0.705138 9.24502 0.62666C7.73544 0.548182 6.25031 1.03166 5.07624 1.98379C3.90218 2.93591 3.12242 4.28918 2.88745 5.78242C2.65248 7.27566 2.97897 8.803 3.80389 10.0697L8.05453 16.5951C8.14912 16.7403 8.27846 16.8596 8.43081 16.9422C8.58317 17.0248 8.75373 17.0681 8.92702 17.0681C9.10032 17.0681 9.27087 17.0248 9.42323 16.9422C9.57558 16.8596 9.70492 16.7403 9.79951 16.5951L14.0503 10.0697C14.8157 8.89465 15.154 7.49223 15.0084 6.09746C14.8628 4.70269 14.2422 3.40036 13.2506 2.40875ZM13.1077 9.45561L8.92704 15.8734L4.74636 9.45561C3.46668 7.49111 3.74114 4.86212 5.39897 3.20423C5.86228 2.7409 6.41231 2.37338 7.01766 2.12263C7.623 1.87188 8.27181 1.74282 8.92704 1.74282C9.58227 1.74282 10.2311 1.87188 10.8364 2.12263C11.4418 2.37338 11.9918 2.7409 12.4551 3.20423C14.1129 4.86212 14.3874 7.49111 13.1077 9.45561Z" fill="black"/>
</svg>
