<svg width="18" height="18" viewBox="0 0 18 18" fill="none" xmlns="http://www.w3.org/2000/svg">
<path d="M14.6118 7.5C14.7176 7.05 14.8235 6.6 14.8235 6C14.8235 2.7 12.9176 0 10.5882 0C9 0 7.51765 1.35 6.88235 3.3C6.56471 3.15 6.14118 3 5.82353 3C4.34118 3 3.17647 4.65 3.17647 6.75C3.17647 7.05 3.17647 7.35 3.28235 7.5C1.37647 7.95 0 10.05 0 12.75C0 15.6 1.69412 18 3.70588 18H14.2941C16.3059 18 18 15.6 18 12.75C18 10.05 16.5176 7.8 14.6118 7.5ZM7.94118 16.35L4.55294 11.55L6.03529 9.45L7.94118 12.15L11.9647 6.45L13.4471 8.55L7.94118 16.35V16.35Z" fill="black"/>
</svg>
