<svg width="24" height="24" viewBox="0 0 24 24" fill="none" xmlns="http://www.w3.org/2000/svg">
<path d="M24 2.84106C23.1013 3.33097 22.148 3.65254 21.1719 3.79508C22.1887 3.04525 22.9693 1.85786 23.3369 0.443094C22.3704 1.14884 21.3129 1.64609 20.2103 1.91335C19.312 0.735876 18.0324 0 16.6162 0C13.8968 0 11.6921 2.71278 11.6921 6.05866C11.6921 6.53359 11.7357 6.99595 11.8196 7.43951C7.72744 7.18676 4.09931 4.77471 1.67072 1.10906C1.24697 2.0039 1.00416 3.04479 1.00416 4.155C1.00416 6.25708 1.8735 8.11148 3.19462 9.19804C2.4127 9.16791 1.64798 8.90804 0.964313 8.44013C0.964031 8.46551 0.964031 8.49089 0.964031 8.51639C0.964031 11.4519 2.66128 13.9008 4.91372 14.4574C4.18864 14.7 3.42809 14.7355 2.69016 14.5612C3.31669 16.9683 5.13516 18.7199 7.28972 18.7689C5.60456 20.3939 3.48141 21.3625 1.17459 21.3625C0.777094 21.3625 0.385219 21.3338 0 21.2779C2.17903 22.997 4.76719 24 7.54781 24C16.6047 24 21.5573 14.7677 21.5573 6.76131C21.5573 6.49852 21.5526 6.23724 21.543 5.97745C22.507 5.11997 23.339 4.05789 24 2.84106Z" fill="#55ACEE"/>
</svg>
